<svg width="128" height="128" viewBox="0 0 128 128" fill="none" xmlns="http://www.w3.org/2000/svg">
<path d="M127.052 43.5417L106.497 27.2094V2.5C106.497 1.11925 105.378 3.96728e-07 103.997 3.96728e-07H97.4446C96.0638 3.96728e-07 94.9446 1.11925 94.9446 2.5C94.9446 3.88074 96.0638 4.99999 97.4446 4.99999H101.498V61.2019L85.8071 73.5481L80.9261 69.1139C76.2831 64.8959 70.2716 62.5731 63.9989 62.5731C57.7261 62.5731 51.7144 64.8961 47.0717 69.1139L42.1907 73.5481L26.5002 61.2019V4.99999H78.3171C79.6979 4.99999 80.8171 3.88074 80.8171 2.5C80.8171 1.11925 79.6979 3.96728e-07 78.3171 3.96728e-07H23.9997C22.619 3.96728e-07 21.4997 1.11925 21.4997 2.5V27.2092L0.944748 43.5414C0.347999 44.0157 0 44.7364 0 45.4989V96.7476C0 103.778 5.71924 109.497 12.7497 109.497H115.247C122.277 109.497 127.997 103.778 127.997 96.7476V45.4992C127.997 44.7367 127.649 44.0159 127.052 43.5417ZM106.497 33.5954L121.466 45.4894L106.497 57.2679V33.5954ZM21.4997 33.5954V57.2679L6.53074 45.4894L21.4997 33.5954ZM9.33248 103.397C9.26173 103.461 9.19648 103.529 9.13473 103.6C6.67824 102.298 4.99999 99.7156 4.99999 96.7476V50.6469L38.4372 76.9571L9.33248 103.397ZM15.557 104.497L23.8127 96.9973H47.4279C48.8087 96.9973 49.9279 95.8781 49.9279 94.4973C49.9279 93.1166 48.8087 91.9973 47.4279 91.9973H29.3167L50.4332 72.8146C58.1664 65.7891 69.8301 65.7891 77.5636 72.8146L112.44 104.497H15.557ZM122.997 96.7476C122.997 99.7156 121.319 102.298 118.862 103.599C118.8 103.529 118.735 103.461 118.664 103.397L89.5596 76.9574L122.997 50.6472V96.7476Z" transform="translate(0 18.5027)" fill="white"/>
<path d="M4.2675 0.732499C3.8025 0.2675 3.1575 3.96728e-07 2.5 3.96728e-07C1.84 3.96728e-07 1.1975 0.2675 0.732498 0.732499C0.264999 1.1975 1.58691e-06 1.8425 1.58691e-06 2.5C1.58691e-06 3.15749 0.264999 3.80249 0.732498 4.26749C1.1975 4.73249 1.83975 4.99999 2.5 4.99999C3.1575 4.99999 3.8025 4.73249 4.2675 4.26749C4.73249 3.80249 4.99999 3.15749 4.99999 2.5C4.99999 1.8425 4.73249 1.1975 4.2675 0.732499Z" transform="translate(85.6653 18.5027)" fill="white"/>
<path d="M2.5 0C1.11925 0 1.77002e-06 1.11925 1.77002e-06 2.5V11.4397C1.77002e-06 12.8205 1.11925 13.9397 2.5 13.9397C3.88074 13.9397 4.99999 12.8205 4.99999 11.4397V2.5C4.99999 1.11925 3.88074 0 2.5 0Z" transform="translate(61.4984)" fill="white"/>
<path d="M7.40925 6.72739L4.73675 1.3824C4.1195 0.147398 2.618 -0.352851 1.3825 0.264398C0.147507 0.881897 -0.352992 2.38364 0.264507 3.61864L2.93725 8.96363C3.37525 9.83963 4.25825 10.3461 5.17525 10.3461C5.55075 10.3461 5.9325 10.2611 6.29125 10.0816C7.52625 9.46413 8.02674 7.96238 7.40925 6.72739Z" transform="translate(44.9642 3.66458)" fill="white"/>
<path d="M6.29108 0.264617C5.05583 -0.353132 3.55434 0.147617 2.93684 1.38262L0.264345 6.7276C-0.352904 7.96285 0.147593 9.4646 1.38259 10.0818C1.74159 10.2613 2.12284 10.3463 2.49859 10.3463C3.41559 10.3463 4.29859 9.83985 4.73659 8.96385L7.40908 3.61886C8.02658 2.38361 7.52608 0.882116 6.29108 0.264617Z" transform="translate(75.3585 3.66437)" fill="white"/>
<path d="M4.26749 0.7325C3.80249 0.267501 3.15999 3.54003e-06 2.5 3.54003e-06C1.8425 3.54003e-06 1.1975 0.267501 0.732497 0.7325C0.267498 1.1975 1.83105e-07 1.8425 1.83105e-07 2.5C1.83105e-07 3.1575 0.267498 3.80249 0.732497 4.26749C1.1975 4.73249 1.84225 4.99999 2.5 4.99999C3.15999 4.99999 3.80249 4.73249 4.26749 4.26749C4.73499 3.80249 4.99999 3.1575 4.99999 2.5C4.99999 1.8425 4.73499 1.1975 4.26749 0.7325Z" transform="translate(58.0811 110.5)" fill="white"/>
<path d="M23.802 4.8828e-07C10.6775 4.8828e-07 -1.83105e-07 10.6775 -1.83105e-07 23.8022C-1.83105e-07 36.9267 10.6775 47.6042 23.802 47.6042C36.9264 47.6042 47.6039 36.9267 47.6039 23.8022C47.6039 10.6777 36.9264 4.8828e-07 23.802 4.8828e-07ZM23.802 42.6044C13.4345 42.6044 4.99999 34.1699 4.99999 23.8025C4.99999 13.4347 13.4345 5.00024 23.802 5.00024C34.1694 5.00024 42.6039 13.4347 42.6039 23.8025C42.6042 34.1697 34.1694 42.6044 23.802 42.6044Z" transform="translate(40.1964 28.4817)" fill="white"/>
<path d="M19.459 6.91883L8.86298 0.801092C7.01324 -0.267156 4.80399 -0.266906 2.95449 0.801092C1.1045 1.86909 1.40381e-06 3.78234 1.40381e-06 5.91833V18.1538C1.40381e-06 20.2901 1.1045 22.2031 2.95449 23.2711C3.87949 23.805 4.89399 24.072 5.90874 24.072C6.92349 24.072 7.93823 23.805 8.86323 23.2708L19.4592 17.1533C21.3092 16.0853 22.4137 14.1723 22.414 12.0363C22.4137 9.90007 21.3092 7.98683 19.459 6.91883ZM16.9592 12.8233L6.36299 18.9411C5.96774 19.1696 5.62399 19.0391 5.45399 18.9411C5.28424 18.8431 4.99949 18.6106 4.99949 18.1538V5.91833C4.99949 5.46158 5.28424 5.22909 5.45399 5.13109C5.55424 5.07334 5.71499 5.00408 5.91124 5.00408C6.04749 5.00408 6.20099 5.03759 6.36299 5.13109L16.9592 11.2488C17.3547 11.4773 17.4137 11.8401 17.4137 12.0361C17.4137 12.2321 17.3547 12.5948 16.9592 12.8233Z" transform="translate(54.6761 40.2478)" fill="white"/>
</svg>
