<svg width="114" height="128" viewBox="0 0 114 128" fill="none" xmlns="http://www.w3.org/2000/svg">
<path d="M84.6561 73.5359C83.9023 72.3789 82.3536 72.0517 81.1966 72.8054C73.2001 78.0142 63.9049 80.7674 54.3166 80.7674C27.1234 80.7674 4.99999 58.6442 4.99999 31.451C4.99999 21.5763 7.90724 12.0493 13.408 3.89881C14.1805 2.75432 13.8787 1.20057 12.7342 0.428072C11.59 -0.344426 10.0357 -0.0426788 9.26323 1.10182C3.20349 10.0813 -1.75476e-07 20.5763 -1.75476e-07 31.4513C-1.75476e-07 45.9597 5.64999 59.5997 15.909 69.8589C26.1679 80.1182 39.8082 85.7679 54.3166 85.7679C64.8764 85.7679 75.1149 82.7344 83.9258 76.9954C85.0831 76.2419 85.4101 74.6929 84.6561 73.5359Z" transform="translate(0 42.2321)" fill="white"/>
<path d="M4.34408 0.714932C3.35808 -0.251816 1.77533 -0.236065 0.808332 0.749684L0.725332 0.833935C-0.247166 1.81393 -0.240918 3.39693 0.73908 4.36968C1.22683 4.85343 1.86333 5.09493 2.50008 5.09493C3.14283 5.09493 3.78608 4.84843 4.27482 4.35568L4.37832 4.25068C5.34532 3.26468 5.33007 1.68193 4.34408 0.714932Z" transform="translate(88.7107 107.472)" fill="white"/>
<path d="M79.8535 40.9722C80.3417 41.4604 80.9815 41.7044 81.6212 41.7044C82.261 41.7044 82.9007 41.4602 83.389 40.9722L87.5535 36.8077C90.5207 33.8399 90.5207 29.0112 87.5535 26.0435L78.6285 17.1185C77.1907 15.681 75.2792 14.8892 73.2465 14.8892C71.2132 14.8892 69.302 15.681 67.8645 17.1185L63.7 21.2827C63.2313 21.7515 62.9678 22.3875 62.9678 23.0505C62.9678 23.7135 63.2313 24.3495 63.7 24.8182L64.8823 26.0005L61.8868 28.9959C55.5345 24.584 48.351 21.6085 40.7398 20.2367V16.0007H46.24C47.6205 16.0007 48.74 14.8815 48.74 13.5007V2.5C48.74 1.11925 47.6205 0 46.24 0H15.7388C14.3583 0 13.2388 1.11925 13.2388 2.5V13.5005C13.2388 14.8812 14.3583 16.0005 15.7388 16.0005H21.2391V20.2417C14.0836 21.5392 7.25536 24.2642 1.12412 28.3072C-0.0286245 29.0674 -0.346874 30.6179 0.413124 31.7709C1.17362 32.9237 2.72437 33.2419 3.87687 32.4817C11.9274 27.1729 21.3028 24.367 30.9896 24.367C58.1828 24.367 80.3062 46.4902 80.3062 73.6836C80.3062 82.9053 77.7457 91.8978 72.9015 99.6878C72.1725 100.86 72.5317 102.402 73.7045 103.131C74.1155 103.387 74.5715 103.509 75.0222 103.509C75.8577 103.509 76.674 103.09 77.1477 102.328C82.4855 93.7448 85.3065 83.8396 85.3065 73.6836C85.3065 62.4804 81.9347 51.7969 75.6762 42.7862L78.6717 39.7907L79.8535 40.9722ZM35.7393 19.5742C34.1683 19.439 32.5846 19.3667 30.9891 19.3667C29.3968 19.3665 27.8123 19.437 26.2388 19.5737V16.0007H35.7391V19.5742H35.7393ZM23.7391 11.0005H18.2388V5.00024H43.7398V11.0005H38.2396H23.7391ZM72.6087 38.7812C71.5935 37.5749 70.5247 36.4037 69.3965 35.2754C68.2685 34.1474 67.0973 33.0787 65.8908 32.0632L68.4175 29.5364L75.1352 36.2542L72.6087 38.7812ZM70.1857 24.2332C70.1852 24.2327 70.1847 24.2325 70.1842 24.232L69.0035 23.0512L71.4002 20.6547C71.8935 20.1615 72.549 19.89 73.2465 19.89C73.9437 19.89 74.5995 20.1615 75.0927 20.655L84.0177 29.5797C85.0357 30.5977 85.0357 32.2544 84.0177 33.2727L81.6212 35.6689L80.4427 34.4904C80.4415 34.4892 80.4405 34.4879 80.4392 34.4867L70.1857 24.2332Z" transform="translate(23.3278)" fill="white"/>
<path d="M2.49999 1.09863e-06C1.1195 1.09863e-06 -1.83105e-06 1.11925 -1.83105e-06 2.5V8.00023C-1.83105e-06 9.38098 1.11925 10.5002 2.49999 10.5002C3.88049 10.5002 4.99999 9.38098 4.99999 8.00023V2.5C4.99999 1.11925 3.88049 1.09863e-06 2.49999 1.09863e-06Z" transform="translate(51.8172 38.2479)" fill="white"/>
<path d="M4.2675 0.732498C3.8025 0.267498 3.15775 7.3242e-07 2.5 7.3242e-07C1.8425 7.3242e-07 1.1975 0.267498 0.732751 0.732498C0.267751 1.1975 1.95312e-06 1.8425 1.95312e-06 2.5C1.95312e-06 3.15999 0.267501 3.80249 0.732751 4.26749C1.1975 4.73249 1.8425 4.99999 2.5 4.99999C3.15775 4.99999 3.8025 4.73249 4.2675 4.26749C4.73249 3.80249 4.99999 3.15749 4.99999 2.5C4.99999 1.8425 4.73274 1.1975 4.2675 0.732498Z" transform="translate(75.1054 47.8944)" fill="white"/>
<path d="M8.00024 4.27245e-07H2.5C1.1195 4.27245e-07 1.58691e-06 1.11925 1.58691e-06 2.5C1.58691e-06 3.88074 1.1195 4.99999 2.5 4.99999H8.00024C9.38074 4.99999 10.5002 3.88074 10.5002 2.5C10.5002 1.11925 9.38074 4.27245e-07 8.00024 4.27245e-07Z" transform="translate(79.2518 71.1831)" fill="white"/>
<path d="M4.2675 0.732499C3.8025 0.2675 3.15775 2.4414e-06 2.5 2.4414e-06C1.8425 2.4414e-06 1.1975 0.2675 0.732751 0.732499C0.267751 1.1975 1.95312e-06 1.8425 1.95312e-06 2.5C1.95312e-06 3.16 0.267501 3.80499 0.732751 4.26749C1.1975 4.73499 1.8425 4.99999 2.5 4.99999C3.15775 4.99999 3.8025 4.73499 4.2675 4.26749C4.73249 3.80249 4.99999 3.16 4.99999 2.5C4.99999 1.8425 4.73274 1.2 4.2675 0.732499Z" transform="translate(75.1054 94.4711)" fill="white"/>
<path d="M2.49999 -2.01416e-06C1.1195 -2.01416e-06 -1.83105e-06 1.11925 -1.83105e-06 2.49999V8.00023C-1.83105e-06 9.38098 1.1195 10.5002 2.49999 10.5002C3.88049 10.5002 4.99999 9.38098 4.99999 8.00023V2.49999C4.99999 1.1195 3.88049 -2.01416e-06 2.49999 -2.01416e-06Z" transform="translate(51.8172 98.6181)" fill="white"/>
<path d="M4.26749 0.732499C3.80224 0.2675 3.15749 2.4414e-06 2.49999 2.4414e-06C1.8425 2.4414e-06 1.1975 0.2675 0.732747 0.732499C0.267748 1.1975 -1.52588e-06 1.8425 -1.52588e-06 2.5C-1.52588e-06 3.16 0.267498 3.80249 0.732747 4.26749C1.1975 4.73499 1.8425 4.99999 2.49999 4.99999C3.15749 4.99999 3.80249 4.73499 4.26749 4.26749C4.73249 3.80249 4.99999 3.16 4.99999 2.5C5.00024 1.8425 4.73274 1.1975 4.26749 0.732499Z" transform="translate(28.5284 94.4711)" fill="white"/>
<path d="M8.00023 4.27245e-07H2.5C1.1195 4.27245e-07 8.85008e-07 1.11925 8.85008e-07 2.5C8.85008e-07 3.88074 1.1195 4.99999 2.5 4.99999H8.00023C9.38073 4.99999 10.5002 3.88074 10.5002 2.5C10.5005 1.11925 9.38098 4.27245e-07 8.00023 4.27245e-07Z" transform="translate(18.8817 71.1831)" fill="white"/>
<path d="M4.26749 0.732498C3.80249 0.267498 3.15749 7.3242e-07 2.49999 7.3242e-07C1.8425 7.3242e-07 1.1975 0.267498 0.732747 0.732498C0.267748 1.1975 -1.52588e-06 1.8425 -1.52588e-06 2.5C-1.52588e-06 3.15749 0.267498 3.80249 0.732747 4.26749C1.1975 4.73249 1.8425 4.99999 2.49999 4.99999C3.15749 4.99999 3.80249 4.73249 4.26749 4.26749C4.73249 3.80249 4.99999 3.15749 4.99999 2.5C4.99999 1.8425 4.73274 1.1975 4.26749 0.732498Z" transform="translate(28.5284 47.8944)" fill="white"/>
<path d="M28.0197 0.732204C27.2057 -0.0815448 25.9417 -0.234545 24.9572 0.361454L4.32024 12.8549C4.09699 12.9817 3.78449 13.1654 3.57299 13.3319C1.41275 14.8747 2.13623e-07 17.4007 2.13623e-07 20.2517C2.13623e-07 24.9392 3.81324 28.7521 8.50023 28.7521C11.3402 28.7521 13.858 27.3506 15.4022 25.2042C15.587 24.9754 15.7592 24.6752 15.8995 24.4279L28.3904 3.7947C28.9864 2.81045 28.8332 1.5462 28.0197 0.732204ZM11.592 21.8879L11.3855 22.2289C10.754 23.1477 9.69673 23.7522 8.49998 23.7522C6.57024 23.7522 4.99999 22.1822 4.99999 20.2522C4.99999 19.0552 5.60474 17.9974 6.52399 17.3659L6.86299 17.1607C7.35173 16.9007 7.90848 16.7522 8.49973 16.7522C10.4297 16.7522 12 18.3222 12 20.2524C12 20.8429 11.8515 21.3994 11.592 21.8879ZM15.4987 15.4352C14.91 14.5824 14.17 13.8424 13.317 13.2537L18.8457 9.90669L15.4987 15.4352Z" transform="translate(45.8169 53.4312)" fill="white"/>
<path d="M43.3092 1.37329e-07C19.4285 1.37329e-07 1.98364e-07 19.428 1.98364e-07 43.3087C1.98364e-07 67.1894 19.4282 86.6176 43.3092 86.6176C67.1901 86.6176 86.6181 67.1894 86.6181 43.3087C86.6181 19.428 67.1899 1.37329e-07 43.3092 1.37329e-07ZM43.3092 81.6173C22.1857 81.6173 5.00024 64.4321 5.00024 43.3087C5.00024 22.1852 22.1855 4.99999 43.3092 4.99999C64.4326 4.99999 81.6178 22.1852 81.6178 43.3087C81.6178 64.4321 64.4326 81.6173 43.3092 81.6173Z" transform="translate(11.008 30.3747)" fill="white"/>
<path d="M4.26749 0.732497C3.80224 0.267498 3.15749 6.1035e-07 2.5 6.1035e-07C1.8425 6.1035e-07 1.1975 0.267498 0.732749 0.732497C0.26775 1.1975 4.27245e-07 1.8425 4.27245e-07 2.5C4.27245e-07 3.15999 0.2675 3.80249 0.732749 4.26749C1.1975 4.73249 1.8425 4.99999 2.5 4.99999C3.15749 4.99999 3.80249 4.73249 4.26749 4.26749C4.73249 3.80249 4.99999 3.15749 4.99999 2.5C4.99999 1.84275 4.73274 1.19775 4.26749 0.732497Z" transform="translate(15.3305 34.3912)" fill="white"/>
</svg>
