<svg width="128" height="128" viewBox="0 0 128 128" fill="none" xmlns="http://www.w3.org/2000/svg">
<path d="M18.75 8.54492e-07H2.5C1.1195 8.54492e-07 0 1.1195 0 2.5C0 3.8805 1.1195 5 2.5 5H18.75C20.1305 5 21.25 3.8805 21.25 2.5C21.25 1.1195 20.1305 8.54492e-07 18.75 8.54492e-07Z" transform="translate(77.25 29.5853)" fill="white"/>
<path d="M18.75 8.54492e-07H2.5C1.1195 8.54492e-07 0 1.1195 0 2.5C0 3.8805 1.1195 5 2.5 5H18.75C20.1305 5 21.25 3.8805 21.25 2.5C21.25 1.1195 20.1305 8.54492e-07 18.75 8.54492e-07Z" transform="translate(77.25 39.5853)" fill="white"/>
<path d="M18.4533 0H2.5C1.1195 0 0 1.1195 0 2.5C0 3.8805 1.1195 5 2.5 5H18.4533C19.8338 5 20.9533 3.8805 20.9533 2.5C20.9533 1.1195 19.8338 0 18.4533 0Z" transform="translate(29.5 73.75)" fill="white"/>
<path d="M4.26725 0.732498C3.8025 0.267248 3.1575 0 2.5 0C1.8425 0 1.1975 0.267248 0.732498 0.732498C0.267498 1.19775 0 1.8425 0 2.5C0 3.1575 0.267248 3.8025 0.732498 4.26725C1.1975 4.73225 1.8425 5 2.5 5C3.1575 5 3.8025 4.7325 4.26725 4.26725C4.7325 3.8025 5 3.1575 5 2.5C5 1.8425 4.7325 1.1975 4.26725 0.732498Z" transform="translate(56 73.75)" fill="white"/>
<path d="M29 0H2.5C1.1195 0 0 1.1195 0 2.5C0 3.8805 1.1195 5 2.5 5H29C30.3805 5 31.5 3.8805 31.5 2.5C31.5 1.1195 30.3805 0 29 0Z" transform="translate(29.5 63.75)" fill="white"/>
<path d="M122.232 48.4845H121.25V23.7495C121.25 22.369 120.131 21.2495 118.75 21.2495H109.5V2.5C109.5 1.1195 108.381 0 107 0H39.6668C38.2863 0 37.1668 1.1195 37.1668 2.5C37.1668 3.8805 38.2863 5 39.6668 5H104.5V48.4845H78.768C75.5875 48.4845 73 51.0723 73 54.2525V84.2162C73 87.3967 75.5877 89.9843 78.768 89.9843H83.4285L89.2322 95.788C89.7205 96.276 90.3603 96.5202 91 96.5202C91.6397 96.5202 92.2795 96.276 92.7678 95.788L98.5715 89.9843H116.25V99.5H74.009H54.009H11.75V89.9995H20.942C20.9615 90 20.9805 90.0025 21 90.0025C21.0195 90.0025 21.0385 90 21.058 89.9995H66.0833C67.4638 89.9995 68.5833 88.88 68.5833 87.4995C68.5833 86.119 67.4638 84.9995 66.0833 84.9995H23.5V31H28.5C29.8805 31 31 29.8805 31 28.5V2.5C31 1.1195 29.8805 0 28.5 0H2.5C1.1195 0 0 1.1195 0 2.5V28.5C0 29.8805 1.1195 31 2.5 31H18.5V84.9995H11.75V37.367C11.75 35.9865 10.6305 34.867 9.25 34.867C7.8695 34.867 6.75 35.9865 6.75 37.367V102C6.75 103.381 7.8695 104.5 9.25 104.5H51.509V112.999H41.753C40.3725 112.999 39.253 114.118 39.253 115.499V125.5C39.253 126.881 40.3725 128 41.753 128H86.2653C87.6458 128 88.7653 126.881 88.7653 125.5V115.499C88.7653 114.118 87.6458 112.999 86.2653 112.999H76.5092V104.5H118.75C120.131 104.5 121.25 103.381 121.25 102V89.9843H122.232C125.413 89.9843 128 87.3965 128 84.2162V54.2525C128 51.072 125.412 48.4845 122.232 48.4845ZM5 26V5H26V18.4832L22.1968 14.68C21.2203 13.704 19.6377 13.704 18.661 14.68L7.341 26H5ZM14.4122 26L20.4287 19.9835L26 25.5545V26H14.4122ZM56.509 104.5H71.509V112.999H56.509V104.5ZM83.765 117.999V123H44.253V117.999H54.009H74.009H83.765ZM109.5 26.2495H116.25V48.4842H109.5V26.2495ZM123 84.2162C123 84.6397 122.656 84.9843 122.232 84.9843H97.536C96.873 84.9843 96.2373 85.2477 95.7682 85.7165L91 90.4845L86.232 85.7165C85.763 85.2477 85.1273 84.9843 84.4642 84.9843H78.7682C78.3447 84.9843 78.0003 84.6397 78.0003 84.2162V54.2525C78.0003 53.829 78.3447 53.4845 78.7682 53.4845H104.5V55.082C104.5 56.4625 105.619 57.582 107 57.582C108.381 57.582 109.5 56.4625 109.5 55.082V53.4845H122.232C122.656 53.4845 123 53.829 123 54.2525V84.2162Z" fill="white"/>
<path d="M17.2402 6.91451L7.68375 0.789263C6.1475 -0.195237 4.198 -0.263737 2.5965 0.612013C0.994996 1.48776 -3.66211e-07 3.16576 -3.66211e-07 4.99101V17.2415C-3.66211e-07 19.0668 0.994746 20.7445 2.5965 21.6203C3.3445 22.0293 4.16825 22.2323 4.9905 22.2323C5.92875 22.2323 6.86475 21.9678 7.6835 21.443L17.24 15.3178H17.2402C18.6785 14.3955 19.5372 12.8248 19.5372 11.1163C19.5375 9.40751 18.6787 7.83701 17.2402 6.91451ZM5.00025 17.2233L5.001 5.00876L14.5293 11.1168L5.00025 17.2233Z" transform="translate(93.2402 59.0827)" fill="white"/>
<path d="M35.6804 21.597L33.4241 19.559C33.4451 19.232 33.4556 18.9045 33.4556 18.5777C33.4556 18.251 33.4451 17.9235 33.4241 17.5965L35.6804 15.5585C36.5559 14.7677 36.7591 13.4727 36.1686 12.4515L32.5084 6.12325C31.9189 5.1035 30.6974 4.63375 29.5756 4.996L26.6884 5.929C26.1426 5.5645 25.5754 5.23625 24.9879 4.94575L24.3519 1.97625C24.1049 0.8235 23.0861 4.42505e-07 21.9074 4.42505e-07H14.5974C13.4184 4.42505e-07 12.3999 0.8235 12.1529 1.97625L11.5169 4.94575C10.9294 5.23625 10.3621 5.5645 9.81637 5.929L6.92912 4.996C5.80862 4.63425 4.58637 5.10325 3.99637 6.12325L0.336117 12.4515C-0.254633 13.4727 -0.0511338 14.7677 0.824366 15.5585L3.08062 17.5965C3.05962 17.9235 3.04912 18.251 3.04912 18.5777C3.04912 18.9045 3.05962 19.232 3.08062 19.559L0.824366 21.597C-0.0511338 22.3877 -0.254383 23.6828 0.336117 24.704L3.99637 31.0323C4.58611 32.0522 5.80762 32.5218 6.92912 32.1595L9.81637 31.2265C10.3619 31.5912 10.9294 31.9193 11.5169 32.21L12.1529 35.1795C12.3999 36.3323 13.4186 37.1558 14.5974 37.1558H21.9074C23.0864 37.1558 24.1049 36.3323 24.3519 35.1795L24.9879 32.21C25.5754 31.9195 26.1429 31.5912 26.6884 31.2265L29.5756 32.1595C30.6974 32.5218 31.9189 32.0518 32.5084 31.0323L36.1686 24.704C36.7591 23.6828 36.5559 22.3877 35.6804 21.597ZM28.3306 16.9845C28.4129 17.509 28.4546 18.045 28.4546 18.5777C28.4546 19.1105 28.4129 19.6465 28.3306 20.171C28.1999 21.0047 28.4984 21.8482 29.1246 22.414L30.8271 23.9515L29.1906 26.7805L27.0084 26.0753C26.2039 25.8155 25.3229 25.9795 24.6661 26.5115C23.8339 27.1855 22.9074 27.7215 21.9126 28.104C21.1244 28.407 20.5426 29.0877 20.3656 29.9135L19.8854 32.1553H16.6179L16.1376 29.9135C15.9606 29.0875 15.3789 28.407 14.5906 28.104C13.5959 27.7215 12.6694 27.1855 11.8371 26.5115C11.1804 25.9792 10.2989 25.8155 9.49487 26.0753L7.31261 26.7805L5.67612 23.9515L7.37862 22.414C8.00537 21.8482 8.30412 21.0047 8.17312 20.171C8.09087 19.6465 8.04912 19.1105 8.04912 18.5777C8.04912 18.045 8.09087 17.509 8.17312 16.9845C8.30387 16.1507 8.00537 15.3072 7.37912 14.7415L5.67662 13.204L7.31287 10.375L9.49512 11.0802C10.2991 11.3397 11.1806 11.176 11.8374 10.644C12.6696 9.97 13.5961 9.434 14.5909 9.0515C15.3791 8.7485 15.9609 8.06775 16.1379 7.242L16.6181 5.00025H19.8856L20.3659 7.242C20.5429 8.068 21.1246 8.7485 21.9129 9.0515C22.9076 9.434 23.8341 9.97 24.6664 10.644C25.3231 11.176 26.2041 11.3397 27.0086 11.0802L29.1909 10.375L30.8271 13.204L29.1246 14.7415C28.4984 15.3072 28.1999 16.1507 28.3306 16.9845Z" transform="translate(29.7011 21.4297)" fill="white"/>
<path d="M4.2675 0.7325C3.8 0.2675 3.1575 0 2.5 0C1.83975 0 1.1975 0.26725 0.729999 0.7325C0.264999 1.1975 -4.57764e-07 1.8425 -4.57764e-07 2.5C-4.57764e-07 3.1575 0.264999 3.8025 0.729999 4.26725C1.1975 4.73225 1.83975 5 2.5 5C3.1575 5 3.8 4.7325 4.2675 4.26725C4.73225 3.8025 5 3.1575 5 2.5C5 1.8425 4.7325 1.1975 4.2675 0.7325Z" transform="translate(46.355 11)" fill="white"/>
<path d="M4.2675 0.7325C3.8 0.2675 3.1575 0 2.5 0C1.83975 0 1.1975 0.26725 0.732502 0.7325C0.265002 1.1975 -4.57764e-07 1.84 -4.57764e-07 2.5C-4.57764e-07 3.1575 0.265002 3.8025 0.732502 4.26725C1.1975 4.73225 1.84 5 2.5 5C3.1575 5 3.8 4.7325 4.2675 4.26725C4.73225 3.8025 5 3.1575 5 2.5C5 1.83975 4.7325 1.1975 4.2675 0.7325Z" transform="translate(37.1675 11)" fill="white"/>
<path d="M40.4593 0H2.5C1.1195 0 -1.40381e-06 1.1195 -1.40381e-06 2.5C-1.40381e-06 3.8805 1.1195 5 2.5 5H40.4593C41.8398 5 42.9593 3.8805 42.9593 2.5C42.9593 1.1195 41.8398 0 40.4593 0Z" transform="translate(55.5407 11)" fill="white"/>
<path d="M4.26725 0.7325C3.8025 0.26725 3.16 0 2.5 0C1.8425 0 1.2 0.26725 0.7325 0.7325C0.2675 1.1975 2.09808e-07 1.8425 2.09808e-07 2.5C2.09808e-07 3.1575 0.26725 3.8025 0.7325 4.26725C1.2 4.7325 1.8425 5 2.5 5C3.16 5 3.805 4.7325 4.26725 4.26725C4.73475 3.8025 5.00225 3.1575 5.00225 2.5C5.00225 1.8425 4.73475 1.1975 4.26725 0.7325Z" transform="translate(6.9675 7.75)" fill="white"/>
</svg>
