<svg width="128" height="128" viewBox="0 0 128 128" fill="none" xmlns="http://www.w3.org/2000/svg">
<path d="M4.2675 0.732751C3.8025 0.267752 3.1575 2.19726e-06 2.5 2.19726e-06C1.8425 2.19726e-06 1.1975 0.267502 0.732501 0.732751C0.267501 1.1975 -1.28174e-06 1.8425 -1.28174e-06 2.5C-1.28174e-06 3.16025 0.267501 3.80249 0.732501 4.26749C1.1975 4.73499 1.8425 4.99999 2.5 4.99999C3.1575 4.99999 3.8025 4.73499 4.2675 4.26749C4.7325 3.80249 5 3.15775 5 2.5C5 1.8425 4.73225 1.1975 4.2675 0.732751Z" transform="translate(58.575 107.465)" fill="white"/>
<path d="M74.7455 20.8953V2.49983C74.7455 1.66933 74.333 0.892836 73.6447 0.428087C72.9565 -0.0366621 72.0823 -0.129165 71.3115 0.180834L28.2332 17.5301H14.3582C6.44125 17.5301 0 23.9713 0 31.8888C0 39.8063 6.44125 46.2475 14.3588 46.2475H16.011V61.2605C16.011 62.641 17.1302 63.7605 18.511 63.7605H28.717C30.0978 63.7605 31.217 62.641 31.217 61.2605V47.4535L71.3128 63.58C71.6135 63.701 71.9302 63.7607 72.2452 63.7607C72.7372 63.7607 73.2257 63.6155 73.6452 63.3322C74.3333 62.8675 74.7455 62.091 74.7455 61.2607V42.8655C79.759 41.7248 83.5135 37.2343 83.5135 31.8805C83.5135 26.5268 79.759 22.036 74.7455 20.8953ZM26.2167 58.7605H21.011V46.2472H26.217V58.7605H26.2167ZM26.2173 41.2473H14.3588C9.19825 41.2473 5 37.049 5 31.8888C5 26.7283 9.19825 22.53 14.3588 22.53H26.2183L26.2173 41.2473ZM69.7458 57.5602H69.7455L31.2183 42.0645V21.718L58.575 10.7006V35.5105C58.575 36.891 59.6942 38.0105 61.075 38.0105C62.4557 38.0105 63.575 36.891 63.575 35.5105V8.68682L69.7458 6.20157V57.5602ZM74.7455 37.6265V26.134C76.9607 27.1015 78.5135 29.3125 78.5135 31.8803C78.5135 34.448 76.961 36.659 74.7455 37.6265Z" transform="translate(0 64.2393)" fill="white"/>
<path d="M16.6545 -1.52588e-06H2.5C1.11925 -1.52588e-06 -2.13623e-06 1.1195 -2.13623e-06 2.49999C-2.13623e-06 3.88049 1.11925 4.99999 2.5 4.99999H16.6545C18.0353 4.99999 19.1545 3.88049 19.1545 2.49999C19.1545 1.1195 18.0353 -1.52588e-06 16.6545 -1.52588e-06Z" transform="translate(90.7085 93.6936)" fill="white"/>
<path d="M9.15043 0.731995C8.17418 -0.244003 6.59119 -0.244003 5.61469 0.731995L0.732184 5.61449C-0.244066 6.59074 -0.244066 8.17373 0.732184 9.15023C1.22068 9.63823 1.86044 9.88248 2.50019 9.88248C3.13994 9.88248 3.77994 9.63823 4.26794 9.15023L9.15043 4.26774C10.1267 3.29149 10.1267 1.70849 9.15043 0.731995Z" transform="translate(86.6043 74.6424)" fill="white"/>
<path d="M9.31369 5.77799L4.26794 0.731997C3.29169 -0.244002 1.70869 -0.244002 0.73219 0.731997C-0.24406 1.70824 -0.24406 3.29124 0.73219 4.26774L5.77819 9.31373C6.26644 9.80173 6.90619 10.046 7.54594 10.046C8.18569 10.046 8.82569 9.80173 9.31369 9.31373C10.2899 8.33748 10.2899 6.75449 9.31369 5.77799Z" transform="translate(86.6245 107.466)" fill="white"/>
<path d="M104.5 0H58C52.486 0 48 4.48599 48 9.99998V11H6C2.6915 11 -1.37329e-07 13.6917 -1.37329e-07 17V56.4999C-1.37329e-07 59.8081 2.6915 62.4999 6 62.4999H8.58325V70.1666C8.58325 71.1779 9.1925 72.0894 10.1265 72.4764C10.4358 72.6044 10.7605 72.6666 11.0828 72.6666C11.7333 72.6666 12.3728 72.4126 12.851 71.9344L22.2855 62.4999H71.945C75.2535 62.4999 77.945 59.8081 77.945 56.4999V48.9999H104.5C110.014 48.9999 114.5 44.5139 114.5 38.9999V9.99998C114.5 4.48599 110.014 0 104.5 0ZM72.945 56.4999C72.945 57.0514 72.4965 57.4999 71.945 57.4999H21.25C20.587 57.4999 19.951 57.7634 19.4822 58.2321L13.5835 64.1311V59.9999C13.5835 58.6194 12.4642 57.4999 11.0835 57.4999H6C5.4485 57.4999 5 57.0514 5 56.4999V17C5 16.4485 5.4485 16 6 16H48V38.9999C48 44.5139 52.486 48.9999 58 48.9999H72.945V56.4999ZM109.5 38.9999C109.5 41.7569 107.257 43.9999 104.5 43.9999H58C55.243 43.9999 53 41.7569 53 38.9999V9.99998C53 7.24299 55.243 4.99999 58 4.99999H104.5C107.257 4.99999 109.5 7.24299 109.5 9.99998V38.9999Z" transform="translate(13.5)" fill="white"/>
<path d="M20.86 10.2135L3.75 0.335062C2.9765 -0.111687 2.0235 -0.111687 1.25 0.335062C0.476498 0.781561 -1.89209e-06 1.60706 -1.89209e-06 2.50006V22.2568C-1.89209e-06 23.1498 0.476498 23.9753 1.25 24.4218C1.63675 24.6453 2.06825 24.7568 2.5 24.7568C2.93175 24.7568 3.36325 24.6453 3.75 24.4218L20.86 14.5433C21.6335 14.0968 22.11 13.2713 22.11 12.3783C22.11 11.4853 21.6337 10.66 20.86 10.2135ZM5 17.9268V6.8303L14.61 12.3785L5 17.9268Z" transform="translate(83.9338 12.1214)" fill="white"/>
<path d="M27.5 0H2.5C1.11925 0 2.59399e-07 1.1195 2.59399e-07 2.5C2.59399e-07 3.88049 1.11925 4.99999 2.5 4.99999H27.5C28.8807 4.99999 30 3.88049 30 2.5C30 1.1195 28.8807 0 27.5 0Z" transform="translate(26.1277 26.25)" fill="white"/>
<path d="M4.2675 0.732497C3.8025 0.267248 3.1575 0 2.5 0C1.8425 0 1.1975 0.267248 0.732499 0.732497C0.267499 1.1975 3.96729e-07 1.8425 3.96729e-07 2.5C3.96729e-07 3.15749 0.267499 3.80249 0.732499 4.26724C1.1975 4.73224 1.8425 4.99999 2.5 4.99999C3.16 4.99999 3.8025 4.73249 4.2675 4.26724C4.7325 3.80249 5 3.15749 5 2.5C5 1.8425 4.7325 1.1975 4.2675 0.732497Z" transform="translate(51.1275 40.2499)" fill="white"/>
<path d="M18.1223 0H2.5C1.11925 0 2.59399e-07 1.1195 2.59399e-07 2.5C2.59399e-07 3.88049 1.11925 4.99999 2.5 4.99999H18.1223C19.503 4.99999 20.6223 3.88049 20.6223 2.5C20.6223 1.1195 19.503 0 18.1223 0Z" transform="translate(26.1277 40.2499)" fill="white"/>
</svg>
