<svg width="1108" height="50" viewBox="0 0 1108 50" fill="none" xmlns="http://www.w3.org/2000/svg">
<path d="M24.991 12.4944C24.991 19.6879 19.3807 24.9887 12.4955 24.9887C5.61034 24.9887 0 19.6879 0 12.4944C0 5.25011 5.61034 0 12.4955 0C19.3807 0 24.991 5.25011 24.991 12.4944ZM19.5211 12.4944C19.5211 7.9991 16.2694 4.92339 12.4955 4.92339C8.72158 4.92339 5.46994 7.9991 5.46994 12.4944C5.46994 16.9446 8.72158 20.0653 12.4955 20.0653C16.2694 20.0653 19.5211 16.9389 19.5211 12.4944Z" transform="translate(661.812 13.8182)" fill="white"/>
<path d="M24.991 12.4944C24.991 19.6879 19.3807 24.9887 12.4955 24.9887C5.61034 24.9887 0 19.6879 0 12.4944C0 5.25575 5.61034 0 12.4955 0C19.3807 0 24.991 5.25011 24.991 12.4944ZM19.5211 12.4944C19.5211 7.9991 16.2694 4.92339 12.4955 4.92339C8.72158 4.92339 5.46994 7.9991 5.46994 12.4944C5.46994 16.9446 8.72158 20.0653 12.4955 20.0653C16.2694 20.0653 19.5211 16.9389 19.5211 12.4944Z" transform="translate(688.768 13.8182)" fill="white"/>
<path d="M23.879 0.754845V23.1861C23.879 32.4132 18.454 36.1818 12.0406 36.1818C6.00345 36.1818 2.36993 32.1316 0.999637 28.8193L5.76197 26.8308C6.60998 28.8644 8.68788 31.2641 12.035 31.2641C16.1403 31.2641 18.6843 28.7235 18.6843 23.941V22.144H18.4933C17.2691 23.6593 14.9104 24.9831 11.9339 24.9831C5.70581 24.9831 -2.39939e-06 19.5415 -2.39939e-06 12.5394C-2.39939e-06 5.4867 5.70581 0 11.9339 0C14.9047 0 17.2634 1.32379 18.4933 2.79405H18.6843V0.760478H23.879V0.754845ZM19.0718 12.5394C19.0718 8.13993 16.1459 4.92339 12.4225 4.92339C8.64857 4.92339 5.48679 8.13993 5.48679 12.5394C5.48679 16.8939 8.64857 20.0653 12.4225 20.0653C16.1459 20.0653 19.0718 16.8939 19.0718 12.5394Z" transform="translate(715.713 13.8182)" fill="white"/>
<path d="M5.33516 0V36.6156H0V0H5.33516Z" transform="translate(742.822 1.42517)" fill="white"/>
<path d="M18.4933 16.6122L22.739 19.4513C21.3687 21.4849 18.0665 24.9887 12.3607 24.9887C5.28462 24.9887 -2.05662e-06 19.502 -2.05662e-06 12.4944C-2.05662e-06 5.06422 5.32954 -1.28933e-07 11.7486 -1.28933e-07C18.2125 -1.28933e-07 21.3743 5.15998 22.4076 7.9484L22.9749 9.36796L6.32357 16.2855C7.59839 18.7922 9.58082 20.071 12.3607 20.071C15.1462 20.071 17.0781 18.6965 18.4933 16.6122ZM5.42501 12.1169L16.5558 7.48085C15.9437 5.92046 14.1017 4.83326 11.9339 4.83326C9.154 4.83326 5.28461 7.29495 5.42501 12.1169Z" transform="translate(750.454 13.8125)" fill="white"/>
<path d="M19.6165 23.0622V17.7614H37.4247C37.5988 18.6852 37.6887 19.7781 37.6887 20.961C37.6887 24.938 36.6048 29.8558 33.1117 33.3596C29.714 36.9085 25.3729 38.8013 19.6221 38.8013C8.96306 38.8013 8.03369e-09 30.0924 8.03369e-09 19.4006C8.03369e-09 8.70888 8.96306 -6.71526e-10 19.6221 -6.71526e-10C25.5189 -6.71526e-10 29.7196 2.32087 32.8758 5.34588L29.1468 9.0863C26.8836 6.95696 23.8173 5.30081 19.6165 5.30081C11.8328 5.30081 5.74512 11.5931 5.74512 19.4006C5.74512 27.2082 11.8328 33.5005 19.6165 33.5005C24.6653 33.5005 27.5406 31.4669 29.3827 29.6192C30.8765 28.1208 31.8593 25.9802 32.2468 23.0566L19.6165 23.0622Z" transform="translate(622)" fill="white"/>
<path d="M-1.94193e-07 1.39421V2.79638e-06H8.71455V2.01716H2.64841L8.71455 6.20168V8.00313H-1.94193e-07V6.01969H5.45845L0.827868 2.7655C0.262806 2.33152 -1.94193e-07 1.89691 -1.94193e-07 1.39421Z" transform="translate(388.807 35.2426) scale(2.94158 -2.94158) rotate(90)" fill="white"/>
<path d="M8.72091 7.30165e-06V7.88159H7.21472V4.94301C7.04991 4.94301 -1.94193e-07 4.94301 -1.94193e-07 4.94301V2.95766C-1.94193e-07 2.95766 7.04991 2.95766 7.21472 2.95766V7.30165e-06H8.72091Z" transform="translate(415.011 35.2426) scale(2.94158 -2.94158) rotate(90)" fill="white"/>
<path d="M-1.94193e-07 5.65762V9.1659e-06H1.53228V4.96464H3.70981V1.42983H5.21791C5.21791 1.42983 5.21791 4.82656 5.21791 4.96464H7.18418C7.18418 4.82592 7.18418 0.0967172 7.18418 0.0967172H8.72091V6.94937H1.18867C0.960862 6.94301 0.00763578 6.84692 -1.94193e-07 5.65762Z" transform="translate(438.73 35.2426) scale(2.94158 -2.94158) rotate(90)" fill="white"/>
<path d="M1.78784 2.33031e-06L2.8747 1.11358C2.15692 1.6341 1.70957 2.53641 1.74712 3.55899C1.80884 5.24909 3.15914 6.35949 4.77224 6.30031C6.3847 6.24177 7.64972 5.03402 7.58863 3.34392C7.55936 2.54787 7.23929 1.82245 6.74422 1.34648L7.97871 0.332169C8.78557 1.09831 9.30418 2.17435 9.35127 3.46483C9.45118 6.17496 7.42637 8.10048 4.84478 8.19402C2.26191 8.29011 0.102203 6.51729 0.00357144 3.80843C-0.05688 2.18006 0.654538 0.836777 1.78784 2.33031e-06Z" transform="translate(464.067 36.3163) scale(2.94158 -2.94158) rotate(90)" fill="white"/>
<path d="M8.72091 1.98217C8.72091 1.98217 5.40499 1.98217 5.27136 1.98217C5.27136 2.11644 5.27136 5.15938 5.27136 5.29364C5.40499 5.29364 8.72091 5.29364 8.72091 5.29364V7.27963H-1.94193e-07V5.29364C-1.94193e-07 5.29364 3.39482 5.29364 3.73335 5.29364V1.98217C3.39482 1.98217 -1.94193e-07 1.98217 -1.94193e-07 1.98217V5.74811e-06H8.72091V1.98217Z" transform="translate(487.899 35.2426) scale(2.94158 -2.94158) rotate(90)" fill="white"/>
<path d="M-1.94193e-07 8.60637L1.93826 7.71551V2.95067L-1.94193e-07 2.05917V4.03921e-06L8.72091 4.01206V6.65476L-1.94193e-07 10.6662V8.60637ZM7.11609 5.33308L3.38782 3.61818V7.048L7.11609 5.33308Z" transform="translate(363.206 35.2426) scale(2.94158 -2.94158) rotate(90)" fill="white"/>
<path d="M11.0212 9.47661e-06C14.5739 9.47661e-06 16.9977 2.93603 16.9977 6.32894C16.9977 9.70659 14.3384 12.2761 11.0626 12.2984V12.3003H2.04708L-1.90309e-06 10.1851H11.0728C13.2401 10.1552 14.9964 8.36711 14.9964 6.17177C14.9964 3.95924 13.2121 2.15844 11.02 2.15844C8.82782 2.15844 7.04354 3.95924 7.04354 6.17177V9.15425H5.01683V6.32894C5.01683 2.72668 7.27517 9.47661e-06 11.0212 9.47661e-06Z" transform="translate(333.182 50) scale(2.94158 -2.94158) rotate(90)" fill="white"/>
<path d="M40.6724 -1.95338e-06H6.85755C3.07023 -1.95338e-06 0 3.07023 0 6.85755V42.589C0 46.3763 3.07023 49.4465 6.85755 49.4465H40.6724C44.4597 49.4465 47.53 46.3763 47.53 42.589V6.85755C47.53 3.07023 44.4597 -1.95338e-06 40.6724 -1.95338e-06Z" transform="translate(954.544 0.553467)" fill="#FFCB08"/>
<path d="M-8.6817e-07 39.4942H10.9522V10.7862H-8.6817e-07V39.4942ZM10.9522 -3.97029e-07H-8.6817e-07V7.68865H10.9522V-3.97029e-07Z" transform="translate(885)" fill="white"/>
<path d="M10.565 15.1007C10.565 11.6713 11.45 7.9652 15.3773 7.9652C19.3046 7.9652 20.1896 11.6713 20.1896 15.1007C20.1896 18.4749 19.3046 22.1809 15.3773 22.1809C11.45 22.1809 10.565 18.4749 10.565 15.1007ZM3.54785e-06 38.7198H10.9522V26.2741H11.0628C12.7222 28.708 15.6539 30.1461 18.9174 30.1461C28.542 30.1461 31.1418 21.9596 31.1418 15.2113C31.1418 8.02053 27.2145 4.9761e-07 19.0833 4.9761e-07C13.7179 4.9761e-07 12.0584 2.04662 10.6756 3.87198H10.565V0.71907H3.54785e-06V38.7198Z" transform="translate(899.245 10.0673)" fill="white"/>
<path d="M19.194 19.194C19.028 22.1809 17.092 23.6744 14.6029 23.6744C12.6116 23.6744 11.1734 22.3468 11.1734 21.0193C11.1734 19.0833 12.4457 18.4749 14.8795 17.9217C16.3729 17.5898 17.8664 17.2026 19.194 16.5389V19.194ZM29.7036 11.2287C29.7036 5.69733 29.8142 4.9761e-07 16.0964 4.9761e-07C12.7222 4.9761e-07 9.07149 0.331881 6.30579 1.65942C3.48478 2.98695 1.49349 5.36545 1.32754 9.40337H11.5053C11.5606 8.18646 12.2244 6.47172 15.5985 6.47172C17.3686 6.47172 19.194 7.19082 19.194 9.1268C19.194 10.9522 17.7005 11.3947 16.207 11.6712C10.6203 12.7222 -3.20535e-06 12.3903 -3.20535e-06 21.4618C-3.20535e-06 27.491 4.59107 30.1461 10.1225 30.1461C13.6626 30.1461 17.0367 29.3717 19.3599 26.7166H19.4705C19.4152 27.491 19.5812 28.6526 19.8577 29.427H31.0311C29.8142 27.6017 29.7036 25.1678 29.7036 23.0106V11.2287Z" transform="translate(930.471 10.0673)" fill="white"/>
<path d="M-7.53296e-06 29.427H10.9522V14.271C10.9522 9.67994 13.4413 8.7396 15.322 8.7396C18.5302 8.7396 18.9174 11.0628 18.9174 14.3816V29.427H29.8695V9.73525C29.8695 3.1529 25.1678 4.9761e-07 20.0237 4.9761e-07C15.6539 4.9761e-07 12.7222 1.49348 10.6756 4.3698H10.565V0.71907H-7.53296e-06V29.427Z" transform="translate(963.073 10.0673)" fill="white"/>
<path d="M10.5097 11.8372C11.0075 8.73961 12.8882 7.02487 16.1517 7.02487C18.9727 7.02487 20.964 9.18213 20.964 11.8372H10.5097ZM31.4737 17.5345C31.4737 6.3611 26.5507 4.9761e-07 15.156 4.9761e-07C6.08455 4.9761e-07 -4.1291e-06 6.80361 -4.1291e-06 15.156C-4.1291e-06 24.7253 6.91425 30.1461 16.0964 30.1461C22.6234 30.1461 28.6526 27.2698 30.8652 21.0746H20.6321C19.7471 22.4575 17.8111 23.1212 16.0411 23.1212C12.6116 23.1212 10.7309 20.798 10.4543 17.5345H31.4737Z" transform="translate(994.797 10.0673)" fill="white"/>
<path d="M2.361e-06 29.427H10.9522V13.8838C10.9522 10.8969 11.8925 8.7396 14.6582 8.7396C17.977 8.7396 18.2536 11.1734 18.2536 13.8838V29.427H29.2058V13.8838C29.2058 10.8969 30.1461 8.7396 32.9118 8.7396C36.2306 8.7396 36.5072 11.1734 36.5072 13.8838V29.427H47.4594V9.73525C47.4594 5.08888 44.9702 4.9761e-07 37.6135 4.9761e-07C30.478 4.9761e-07 28.2654 4.14854 27.8229 4.48042C26.4954 1.6041 23.1765 4.9761e-07 20.079 4.9761e-07C16.0964 4.9761e-07 12.8882 1.21691 10.6756 4.53574H10.565V0.71907H2.361e-06V29.427Z" transform="translate(1027.93 10.0673)" fill="white"/>
<path d="M19.194 19.194C19.028 22.1809 17.092 23.6744 14.6029 23.6744C12.6116 23.6744 11.1734 22.3468 11.1734 21.0193C11.1734 19.0833 12.4456 18.4749 14.8795 17.9217C16.3729 17.5898 17.8664 17.2026 19.194 16.5389V19.194ZM29.7036 11.2287C29.7036 5.69733 29.8142 4.9761e-07 16.0964 4.9761e-07C12.7222 4.9761e-07 9.07151 0.331881 6.30581 1.65942C3.4848 2.98695 1.49347 5.36545 1.32753 9.40337H11.5053C11.5606 8.18646 12.2244 6.47172 15.5985 6.47172C17.3686 6.47172 19.194 7.19082 19.194 9.1268C19.194 10.9522 17.7005 11.3947 16.207 11.6712C10.6203 12.7222 -4.2985e-06 12.3903 -4.2985e-06 21.4618C-4.2985e-06 27.491 4.59105 30.1461 10.1224 30.1461C13.6625 30.1461 17.0367 29.3717 19.3599 26.7166H19.4705C19.4152 27.491 19.5812 28.6526 19.8577 29.427H31.0312C29.8142 27.6017 29.7036 25.1678 29.7036 23.0106V11.2287Z" transform="translate(1076.6 10.0673)" fill="white"/>
<path fill-rule="evenodd" clip-rule="evenodd" d="M79.9481 7.201C70.2628 14.3077 56.2246 18.0995 44.1379 18.0995C27.1905 18.0995 11.9335 11.8594 0.39093 1.48094C-0.51593 0.664817 0.296614 -0.447425 1.38485 0.188134C13.8415 7.40322 29.2436 11.7438 45.1536 11.7438C55.8836 11.7438 67.6873 9.53379 78.5406 4.94764C80.1802 4.25429 81.5514 6.01654 79.9481 7.201Z" transform="translate(23.4487 31.9005)" fill="#FF9900"/>
<path fill-rule="evenodd" clip-rule="evenodd" d="M12.1079 4.34904C10.8746 2.77457 3.92438 3.60514 0.804776 3.97347C-0.145619 4.08903 -0.290713 3.26569 0.565359 2.67345C6.10085 -1.20492 15.184 -0.0854564 16.2432 1.21456C17.3024 2.5218 15.9675 11.5858 10.7657 15.9119C9.96771 16.5764 9.20594 16.2225 9.56143 15.3414C10.7295 12.438 13.3485 5.93072 12.1079 4.34904Z" transform="translate(95.3153 30.1664)" fill="#FF9900"/>
<path fill-rule="evenodd" clip-rule="evenodd" d="M0.964901 4.72338V0.953342C0.964901 0.38278 1.40019 -4.46046e-06 1.92255 -4.46046e-06H18.8772C19.4213 -4.46046e-06 19.8566 0.390003 19.8566 0.953342V4.18171C19.8494 4.72338 19.3923 5.43117 18.5798 6.55062L9.7941 19.038C13.0588 18.9585 16.5049 19.4424 19.4649 21.1036C20.1323 21.4791 20.3137 22.028 20.3645 22.5697V26.5925C20.3645 27.1414 19.7551 27.7842 19.1166 27.452C13.9004 24.7292 6.97195 24.433 1.20431 27.4809C0.616664 27.7986 -1.69576e-06 27.1631 -1.69576e-06 26.6142V22.7936C-1.69576e-06 22.1797 0.00725091 21.1325 0.623916 20.2008L10.8025 5.66951H1.94431C1.4002 5.66951 0.964901 5.28672 0.964901 4.72338Z" transform="translate(95.3729 0.736694)" fill="white"/>
<path fill-rule="evenodd" clip-rule="evenodd" d="M6.0796 28.7303H0.921372C0.428044 28.6942 0.0362763 28.3259 2.37069e-07 27.8564V1.50224C2.37069e-07 0.975012 0.442549 0.556124 0.993921 0.556124H5.80391C6.30451 0.577777 6.70352 0.960565 6.7398 1.43724V4.88227H6.83411C8.08921 1.55279 10.447 -4.6703e-06 13.6247 -4.6703e-06C16.8531 -4.6703e-06 18.87 1.55279 20.321 4.88227C21.5688 1.55279 24.4055 -4.6703e-06 27.4453 -4.6703e-06C29.6072 -4.6703e-06 31.9723 0.888335 33.416 2.88169C35.0484 5.09894 34.7147 8.3201 34.7147 11.144L34.7074 27.777C34.7074 28.3042 34.2649 28.7303 33.7135 28.7303H28.5625C28.0474 28.6942 27.6339 28.2825 27.6339 27.777V13.809C27.6339 12.6968 27.7355 9.92344 27.4888 8.86898C27.1043 7.09952 25.9508 6.60119 24.4562 6.60119C23.2084 6.60119 21.9025 7.43176 21.3729 8.76066C20.8433 10.0896 20.8941 12.314 20.8941 13.809V27.777C20.8941 28.3042 20.4515 28.7303 19.9002 28.7303H14.7492C14.2269 28.6942 13.8206 28.2825 13.8206 27.777L13.8133 13.809C13.8133 10.8696 14.2994 6.54341 10.6357 6.54341C6.92842 6.54341 7.07352 10.7612 7.07352 13.809V27.777C7.07352 28.3042 6.63097 28.7303 6.0796 28.7303Z" transform="translate(28.4102 0.252808)" fill="white"/>
<path fill-rule="evenodd" clip-rule="evenodd" d="M11.6078 -4.6703e-06C19.2617 -4.6703e-06 23.4043 6.5434 23.4043 14.8635C23.4043 22.9019 18.8264 29.2792 11.6078 29.2792C4.09176 29.2792 3.55907e-06 22.7358 3.55907e-06 14.5818C3.55907e-06 6.37729 4.14255 -4.6703e-06 11.6078 -4.6703e-06ZM11.6514 5.38061C7.8498 5.38061 7.61039 10.5373 7.61039 13.7513C7.61039 16.9724 7.5596 23.848 11.6078 23.848C15.6053 23.848 15.7939 18.3013 15.7939 14.9213C15.7939 12.6968 15.6996 10.039 15.0249 7.93009C14.4445 6.09563 13.291 5.38061 11.6514 5.38061Z" transform="translate(118.218 0.252808)" fill="white"/>
<path fill-rule="evenodd" clip-rule="evenodd" d="M6.07234 28.7303H0.935879C0.420778 28.6942 0.00724775 28.2825 0.00724775 27.777L1.92682e-06 1.41556C0.043531 0.931668 0.47157 0.556124 0.993922 0.556124H5.7749C6.2247 0.577777 6.5947 0.881115 6.69627 1.29279V5.32284H6.79058C8.2343 1.71891 10.2584 -4.6703e-06 13.8206 -4.6703e-06C16.1349 -4.6703e-06 18.3912 0.830565 19.8421 3.10559C21.1915 5.2145 21.1915 8.76066 21.1915 11.3101V27.8998C21.1335 28.362 20.7055 28.7303 20.1976 28.7303H15.0249C14.5533 28.6942 14.1615 28.3475 14.1108 27.8998V13.5851C14.1108 10.7035 14.4445 6.48562 10.8823 6.48562C9.62725 6.48562 8.47372 7.32342 7.90058 8.59454C7.1751 10.2051 7.08078 11.8085 7.08078 13.5851V27.777C7.07353 28.3042 6.62372 28.7303 6.07235 28.7303" transform="translate(145.475 0.252808)" fill="white"/>
<path fill-rule="evenodd" clip-rule="evenodd" d="M15.199 16.3946C15.199 18.3952 15.2498 20.0636 14.2341 21.8402C13.4143 23.2847 12.1084 24.173 10.6647 24.173C8.68411 24.173 7.52333 22.6708 7.52333 20.4536C7.52333 16.0769 11.4627 15.2824 15.199 15.2824V16.3946ZM20.4008 28.9109C20.0598 29.2142 19.5664 29.2359 19.1819 29.0336C17.4698 27.6181 17.1578 26.9609 16.2219 25.6103C13.3925 28.4848 11.3829 29.3442 7.71921 29.3442C3.37352 29.3442 -3.68608e-07 26.6792 -3.68608e-07 21.3419C-3.68608e-07 17.1746 2.26353 14.3363 5.49921 12.9496C8.2996 11.7218 12.21 11.5051 15.199 11.1657V10.5012C15.199 9.28065 15.2933 7.8362 14.5678 6.78175C13.9439 5.83562 12.7396 5.44561 11.6731 5.44561C9.70704 5.44561 7.95862 6.44951 7.53058 8.52953C7.44352 8.99176 7.10254 9.44677 6.63097 9.46843L1.63235 8.93398C1.21157 8.84009 0.74 8.50065 0.863334 7.85787C2.00961 1.82003 7.49431 -8.1246e-06 12.3986 -8.1246e-06C14.9088 -8.1246e-06 18.188 0.664444 20.1686 2.55669C22.6788 4.88949 22.4394 8.00231 22.4394 11.3896V19.3919C22.4394 21.7969 23.4406 22.8514 24.3837 24.1514C24.7102 24.6136 24.7827 25.1697 24.3619 25.5164C23.31 26.3903 21.4382 28.0153 20.408 28.9253L20.4007 28.9109" transform="translate(67.6229)" fill="white"/>
<path fill-rule="evenodd" clip-rule="evenodd" d="M15.199 16.3946C15.199 18.3952 15.2498 20.0636 14.2341 21.8402C13.4143 23.2847 12.1157 24.173 10.6647 24.173C8.6841 24.173 7.53058 22.6708 7.53058 20.4536C7.53058 16.0769 11.47 15.2824 15.199 15.2824V16.3946ZM20.4008 28.9109C20.0598 29.2142 19.5664 29.2359 19.1819 29.0336C17.4698 27.6181 17.1651 26.9609 16.2219 25.6103C13.3925 28.4848 11.3902 29.3442 7.7192 29.3442C3.38077 29.3442 5.99934e-07 26.6792 5.99934e-07 21.3419C5.99934e-07 17.1746 2.27078 14.3363 5.49921 12.9496C8.2996 11.7218 12.21 11.5051 15.199 11.1657V10.5012C15.199 9.28065 15.2933 7.8362 14.5751 6.78175C13.9439 5.83562 12.7396 5.44561 11.6804 5.44561C9.7143 5.44561 7.95862 6.44951 7.53058 8.52953C7.44352 8.99176 7.10254 9.44677 6.63823 9.46843L1.63235 8.93398C1.21157 8.84009 0.747252 8.50065 0.863331 7.85787C2.01686 1.82003 7.4943 -8.1246e-06 12.3986 -8.1246e-06C14.9088 -8.1246e-06 18.188 0.664444 20.1686 2.55669C22.6788 4.88949 22.4394 8.00231 22.4394 11.3896V19.3919C22.4394 21.7969 23.4406 22.8514 24.3837 24.1514C24.7174 24.6136 24.79 25.1697 24.3692 25.5164C23.3172 26.3903 21.4455 28.0153 20.4153 28.9253L20.4008 28.9109" fill="white"/>
</svg>
