<svg width="60" height="60" viewBox="0 0 60 60" fill="none" xmlns="http://www.w3.org/2000/svg">
<path d="M45 13.8681H37.3828C36.7357 13.8681 36.2109 14.3929 36.2109 15.04C36.2109 15.6871 36.7357 16.2119 37.3828 16.2119H45C45.6471 16.2119 46.1719 15.6871 46.1719 15.04C46.1719 14.3929 45.6471 13.8681 45 13.8681Z" fill="#252525"/>
<path d="M45 18.5556H37.3828C36.7357 18.5556 36.2109 19.0804 36.2109 19.7275C36.2109 20.3746 36.7357 20.8994 37.3828 20.8994H45C45.6471 20.8994 46.1719 20.3746 46.1719 19.7275C46.1719 19.0804 45.6471 18.5556 45 18.5556Z" fill="#252525"/>
<path d="M22.4781 34.5703H15C14.3529 34.5703 13.8281 35.0951 13.8281 35.7422C13.8281 36.3893 14.3529 36.9141 15 36.9141H22.4781C23.1252 36.9141 23.65 36.3893 23.65 35.7422C23.65 35.0951 23.1252 34.5703 22.4781 34.5703Z" fill="#252525"/>
<path d="M28.2503 34.9137C28.0324 34.6956 27.7301 34.5703 27.4219 34.5703C27.1137 34.5703 26.8113 34.6956 26.5934 34.9137C26.3754 35.1318 26.25 35.434 26.25 35.7422C26.25 36.0504 26.3753 36.3527 26.5934 36.5706C26.8113 36.7886 27.1137 36.9141 27.4219 36.9141C27.7301 36.9141 28.0324 36.7887 28.2503 36.5706C28.4684 36.3527 28.5938 36.0504 28.5938 35.7422C28.5938 35.434 28.4684 35.1316 28.2503 34.9137Z" fill="#252525"/>
<path d="M27.4219 29.8828H15C14.3529 29.8828 13.8281 30.4076 13.8281 31.0547C13.8281 31.7018 14.3529 32.2266 15 32.2266H27.4219C28.069 32.2266 28.5938 31.7018 28.5938 31.0547C28.5938 30.4076 28.069 29.8828 27.4219 29.8828Z" fill="#252525"/>
<path d="M57.2962 22.7271H56.8359V11.1326C56.8359 10.4855 56.3112 9.9607 55.6641 9.9607H51.3281V1.17188C51.3281 0.524766 50.8034 0 50.1562 0H18.5938C17.9467 0 17.4219 0.524766 17.4219 1.17188C17.4219 1.81898 17.9467 2.34375 18.5938 2.34375H48.9844V22.7271H36.9225C35.4316 22.7271 34.2188 23.9401 34.2188 25.4309V39.4764C34.2188 40.9672 35.4318 42.1801 36.9225 42.1801H39.1071L41.8276 44.9006C42.0565 45.1294 42.3564 45.2439 42.6562 45.2439C42.9561 45.2439 43.256 45.1294 43.4849 44.9006L46.2054 42.1801H54.4922V46.6406H34.6917H25.3167H5.50781V42.1873H9.81656C9.8257 42.1875 9.83461 42.1887 9.84375 42.1887C9.85289 42.1887 9.8618 42.1875 9.87094 42.1873H30.9765C31.6236 42.1873 32.1484 41.6625 32.1484 41.0154C32.1484 40.3683 31.6236 39.8435 30.9765 39.8435H11.0156V14.5312H13.3594C14.0065 14.5312 14.5312 14.0065 14.5312 13.3594V1.17188C14.5312 0.524766 14.0065 0 13.3594 0H1.17188C0.524766 0 0 0.524766 0 1.17188V13.3594C0 14.0065 0.524766 14.5312 1.17188 14.5312H8.67188V39.8435H5.50781V17.5158C5.50781 16.8687 4.98305 16.3439 4.33594 16.3439C3.68883 16.3439 3.16406 16.8687 3.16406 17.5158V47.8125C3.16406 48.4596 3.68883 48.9844 4.33594 48.9844H24.1448V52.9683H19.5717C18.9246 52.9683 18.3998 53.493 18.3998 54.1402V58.8281C18.3998 59.4752 18.9246 60 19.5717 60H40.4368C41.0839 60 41.6087 59.4752 41.6087 58.8281V54.1402C41.6087 53.493 41.0839 52.9683 40.4368 52.9683H35.8637V48.9844H55.6641C56.3112 48.9844 56.8359 48.4596 56.8359 47.8125V42.1801H57.2962C58.7871 42.1801 60 40.9671 60 39.4764V25.4309C60 23.94 58.787 22.7271 57.2962 22.7271ZM2.34375 12.1875V2.34375H12.1875V8.66402L10.4047 6.88125C9.94699 6.42375 9.2052 6.42375 8.74734 6.88125L3.44109 12.1875H2.34375ZM6.75574 12.1875L9.57598 9.36727L12.1875 11.9787V12.1875H6.75574ZM26.4886 48.9844H33.5198V52.9683H26.4886V48.9844ZM39.2648 55.312V57.6562H20.7436V55.312H25.3167H34.6917H39.2648ZM51.3281 12.3045H54.4922V22.727H51.3281V12.3045ZM57.6562 39.4764C57.6562 39.6749 57.4948 39.8364 57.2962 39.8364H45.72C45.4092 39.8364 45.1112 39.9599 44.8914 40.1796L42.6562 42.4146L40.4212 40.1796C40.2014 39.9599 39.9034 39.8364 39.5926 39.8364H36.9226C36.7241 39.8364 36.5626 39.6749 36.5626 39.4764V25.4309C36.5626 25.2323 36.7241 25.0709 36.9226 25.0709H48.9844V25.8197C48.9844 26.4668 49.5091 26.9916 50.1562 26.9916C50.8034 26.9916 51.3281 26.4668 51.3281 25.8197V25.0709H57.2962C57.4948 25.0709 57.6562 25.2323 57.6562 25.4309V39.4764Z" fill="#252525"/>
<path d="M51.7877 30.9362L47.3081 28.065C46.588 27.6036 45.6742 27.5714 44.9235 27.9819C44.1728 28.3925 43.7064 29.179 43.7064 30.0346V35.777C43.7064 36.6326 44.1726 37.4191 44.9235 37.8296C45.2741 38.0213 45.6602 38.1164 46.0457 38.1164C46.4855 38.1164 46.9242 37.9925 47.308 37.7465L51.7876 34.8753H51.7877C52.4619 34.443 52.8644 33.7067 52.8644 32.9058C52.8646 32.1048 52.462 31.3687 51.7877 30.9362ZM46.0502 35.7685L46.0506 30.0429L50.5169 32.9061L46.0502 35.7685Z" fill="#252525"/>
<path d="M30.6476 20.1688L29.59 19.2134C29.5998 19.0602 29.6047 18.9066 29.6047 18.7535C29.6047 18.6003 29.5998 18.4468 29.59 18.2935L30.6476 17.3382C31.058 16.9675 31.1532 16.3605 30.8764 15.8818L29.1607 12.9154C28.8844 12.4374 28.3118 12.2172 27.786 12.387L26.4326 12.8244C26.1768 12.6535 25.9109 12.4997 25.6355 12.3635L25.3373 10.9715C25.2216 10.4312 24.744 10.0452 24.1915 10.0452H20.7649C20.2123 10.0452 19.7348 10.4312 19.6191 10.9715L19.3209 12.3635C19.0455 12.4997 18.7797 12.6535 18.5238 12.8244L17.1704 12.387C16.6452 12.2175 16.0723 12.4373 15.7957 12.9154L14.08 15.8818C13.8031 16.3605 13.8984 16.9675 14.3088 17.3382L15.3664 18.2935C15.3566 18.4468 15.3517 18.6003 15.3517 18.7535C15.3517 18.9066 15.3566 19.0602 15.3664 19.2134L14.3088 20.1688C13.8984 20.5394 13.8032 21.1465 14.08 21.6252L15.7957 24.5915C16.0722 25.0697 16.6447 25.2897 17.1704 25.1199L18.5238 24.6826C18.7795 24.8536 19.0455 25.0073 19.3209 25.1436L19.6191 26.5356C19.7348 27.0759 20.2124 27.4619 20.7649 27.4619H24.1915C24.7441 27.4619 25.2216 27.0759 25.3373 26.5356L25.6355 25.1436C25.9109 25.0074 26.1769 24.8536 26.4326 24.6826L27.786 25.1199C28.3118 25.2897 28.8844 25.0694 29.1607 24.5915L30.8764 21.6252C31.1532 21.1465 31.058 20.5394 30.6476 20.1688ZM27.2024 18.0066C27.2409 18.2525 27.2605 18.5038 27.2605 18.7535C27.2605 19.0032 27.2409 19.2545 27.2024 19.5003C27.1411 19.8911 27.281 20.2865 27.5746 20.5517L28.3726 21.2724L27.6055 22.5985L26.5826 22.2679C26.2055 22.1462 25.7925 22.2231 25.4847 22.4724C25.0945 22.7884 24.6602 23.0396 24.1939 23.2189C23.8245 23.3609 23.5518 23.68 23.4688 24.0671L23.2437 25.1179H21.712L21.4869 24.0671C21.4039 23.6799 21.1313 23.3609 20.7618 23.2189C20.2955 23.0396 19.8612 22.7884 19.4711 22.4724C19.1632 22.2229 18.75 22.1462 18.3731 22.2679L17.3502 22.5985L16.5831 21.2724L17.3811 20.5517C17.6749 20.2865 17.815 19.8911 17.7536 19.5003C17.715 19.2545 17.6954 19.0032 17.6954 18.7535C17.6954 18.5038 17.715 18.2525 17.7536 18.0066C17.8148 17.6158 17.6749 17.2204 17.3814 16.9552L16.5833 16.2345L17.3503 14.9084L18.3732 15.239C18.7501 15.3607 19.1633 15.2839 19.4712 15.0345C19.8613 14.7186 20.2956 14.4674 20.7619 14.2881C21.1314 14.146 21.4041 13.8269 21.487 13.4399L21.7122 12.389H23.2438L23.4689 13.4399C23.5519 13.827 23.8246 14.146 24.1941 14.2881C24.6604 14.4674 25.0947 14.7186 25.4848 15.0345C25.7926 15.2839 26.2056 15.3607 26.5827 15.239L27.6056 14.9084L28.3726 16.2345L27.5746 16.9552C27.281 17.2204 27.1411 17.6158 27.2024 18.0066Z" fill="#252525"/>
<path d="M23.7293 5.49961C23.5102 5.28164 23.209 5.15625 22.9008 5.15625C22.5913 5.15625 22.2902 5.28152 22.0711 5.49961C21.8531 5.71758 21.7289 6.01992 21.7289 6.32812C21.7289 6.63633 21.8531 6.93867 22.0711 7.15652C22.2902 7.37449 22.5913 7.5 22.9008 7.5C23.209 7.5 23.5102 7.37461 23.7293 7.15652C23.9472 6.93867 24.0727 6.63633 24.0727 6.32812C24.0727 6.01992 23.9473 5.71758 23.7293 5.49961Z" fill="#252525"/>
<path d="M19.4227 5.49961C19.2035 5.28164 18.9023 5.15625 18.5941 5.15625C18.2847 5.15625 17.9836 5.28152 17.7656 5.49961C17.5465 5.71758 17.4223 6.01875 17.4223 6.32812C17.4223 6.63633 17.5465 6.93867 17.7656 7.15652C17.9836 7.37449 18.2848 7.5 18.5941 7.5C18.9023 7.5 19.2035 7.37461 19.4227 7.15652C19.6405 6.93867 19.766 6.63633 19.766 6.32812C19.766 6.01863 19.6406 5.71758 19.4227 5.49961Z" fill="#252525"/>
<path d="M45 5.15625H27.2066C26.5595 5.15625 26.0347 5.68102 26.0347 6.32812C26.0347 6.97523 26.5595 7.5 27.2066 7.5H45C45.6471 7.5 46.1719 6.97523 46.1719 6.32812C46.1719 5.68102 45.6471 5.15625 45 5.15625Z" fill="#252525"/>
<path d="M5.26629 3.97617C5.04844 3.75809 4.74726 3.63281 4.43789 3.63281C4.12969 3.63281 3.82851 3.75809 3.60937 3.97617C3.3914 4.19414 3.26601 4.49648 3.26601 4.80469C3.26601 5.11289 3.39129 5.41523 3.60937 5.63309C3.82851 5.85117 4.12969 5.97656 4.43789 5.97656C4.74726 5.97656 5.04961 5.85117 5.26629 5.63309C5.48543 5.41523 5.61082 5.11289 5.61082 4.80469C5.61082 4.49648 5.48543 4.19414 5.26629 3.97617Z" fill="#252525"/>
</svg>
