<svg width="49" height="60" viewBox="0 0 49 60" fill="none" xmlns="http://www.w3.org/2000/svg">
<g id="products">
<g id="Canvas">
<g id="Group 4">
<g id="Canvas_2">
<g id="Group 3">
<g id="Vector">
<g id="Vector_2">
<path id="Vector_3" d="M0.542409 59.2643H6.61522e-05C6.94062e-05 59.5675 0.242882 59.813 0.542409 59.813V59.2643ZM0.542409 28.1297L0.161805 27.7386C0.0583301 27.8418 6.61522e-05 27.9827 6.61522e-05 28.1297H0.542409ZM27.6595 28.1297L28.2018 28.1315C28.2021 28.0599 28.1884 27.9889 28.1617 27.9226L27.6595 28.1297ZM7.90768 17.1169V16.5681C7.60815 16.5681 7.36534 16.8138 7.36534 17.1169H7.90768ZM24.7045 17.1169H25.2468C25.2468 16.9714 25.1896 16.8318 25.0879 16.7289C24.9863 16.6259 24.8483 16.5681 24.7045 16.5681V17.1169ZM18.0184 32.9222H18.5607H18.0184ZM21.3684 24.4159L20.9713 24.042C20.9701 24.0433 20.9689 24.0446 20.9678 24.0459L21.3684 24.4159ZM0.542343 52.1299H0H0.542343ZM27.551 59.2643V59.813C27.8498 59.813 28.0922 59.5686 28.0933 59.2662L27.551 59.2643ZM0.542409 59.813H18.0184V58.7155H0.542409V59.813ZM18.0184 27.5808H0.542409V28.6784H18.0184V27.5808ZM18.0184 28.6784H27.6595V27.5808H18.0184V28.6784ZM24.2021 20.9948L27.1572 28.3367L28.1617 27.9226L25.2066 20.5808L24.2021 20.9948ZM0.92301 28.5207L8.28829 21.1788L7.52709 20.3969L0.161805 27.7386L0.92301 28.5207ZM8.45 20.7878V17.1169H7.36534V20.7878H8.45ZM7.90768 17.6657L24.7045 17.6657V16.5681L7.90768 16.5681V17.6657ZM24.1622 17.1169V20.7878H25.2468V17.1169H24.1622ZM6.61522e-05 28.1297V32.9222H1.08475V28.1297H6.61522e-05ZM18.5607 32.9222V28.1297H17.476V32.9222H18.5607ZM0.542409 33.471H18.0184V32.3734H0.542409V33.471ZM18.419 28.4995L21.769 24.7858L20.9678 24.0459L17.6178 27.7596L18.419 28.4995ZM21.7654 24.7897L25.1014 21.1616L24.3074 20.414L20.9713 24.042L21.7654 24.7897ZM6.61522e-05 32.9222L4.01361e-05 48.947H1.08473L1.08475 32.9222H6.61522e-05ZM18.5607 48.947V32.9222H17.476V48.947H18.5607ZM0.542382 49.4957H18.0184V48.3981H0.542382V49.4957ZM4.01361e-05 48.947L0 52.1299H1.08469L1.08473 48.947H4.01361e-05ZM0 52.1299L6.61522e-05 59.2643H1.08475L1.08469 52.1299H0ZM18.5607 59.2643C18.5607 57.4591 18.5606 53.9351 18.5606 52.1299H17.4759C17.4759 53.9351 17.476 57.4591 17.476 59.2643H18.5607ZM18.5606 52.1299C18.5606 51.1743 18.5607 49.9027 18.5607 48.947H17.476C17.476 49.9026 17.4759 51.1742 17.4759 52.1299H18.5606ZM0.542343 52.6787H18.0182V51.5812H0.542343V52.6787ZM27.1171 28.1277L27.0087 59.2623L28.0933 59.2662L28.2018 28.1315L27.1171 28.1277ZM7.90768 21.3366H24.7045V20.239H7.90768V21.3366ZM27.551 58.7155H18.0184V59.813H27.551V58.7155Z" fill="#252525"/>
</g>
</g>
<g id="Line 3 (Stroke)">
<g id="Vector_4">
<path id="Vector_5" fill-rule="evenodd" clip-rule="evenodd" d="M10.6296 57.1749C10.6296 57.4758 10.3886 57.7197 10.0913 57.7197H2.70753C2.41018 57.7197 2.16913 57.4758 2.16913 57.1749C2.16913 56.874 2.41018 56.6301 2.70753 56.6301H10.0913C10.3886 56.6301 10.6296 56.874 10.6296 57.1749Z" fill="#252525"/>
</g>
</g>
<g id="Line 3 (Stroke).1">
<g id="Vector_6">
<path id="Vector_7" fill-rule="evenodd" clip-rule="evenodd" d="M6.18246 55.2025C6.18246 55.5056 5.93965 55.7513 5.64013 55.7513H2.71147C2.41194 55.7513 2.16913 55.5056 2.16913 55.2025C2.16913 54.8994 2.41194 54.6537 2.71147 54.6537H5.64013C5.93965 54.6537 6.18246 54.8994 6.18246 55.2025Z" fill="#252525"/>
</g>
</g>
<g id="Rectangle 2">
<g id="Vector_8">
<path id="Vector_9" d="M11.0094 25.6782C10.3804 25.6782 9.87051 25.1622 9.87051 24.5257H8.78583C8.78583 25.7684 9.78137 26.7757 11.0094 26.7757V25.6782ZM12.1484 24.5257C12.1484 25.1622 11.6384 25.6782 11.0094 25.6782V26.7757C12.2375 26.7757 13.233 25.7684 13.233 24.5257H12.1484ZM11.0094 23.3732C11.6384 23.3732 12.1484 23.8892 12.1484 24.5257H13.233C13.233 23.283 12.2375 22.2756 11.0094 22.2756V23.3732ZM11.0094 22.2756C9.78137 22.2756 8.78583 23.283 8.78583 24.5257H9.87051C9.87051 23.8892 10.3804 23.3732 11.0094 23.3732V22.2756Z" fill="#252525"/>
</g>
</g>
<g id="Milk">
<g id="Vector_10">
<path id="Vector_11" d="M6.96797 46.4422C6.96797 46.5089 6.94542 46.5651 6.90029 46.6108C6.85517 46.6564 6.79963 46.6793 6.73368 46.6793H3.62541C3.53169 46.6793 3.45186 46.6459 3.38591 46.5792C3.31649 46.5124 3.28178 46.4316 3.28178 46.3368V46.163C3.28178 46.0927 3.30261 46.0295 3.34426 45.9733C3.38591 45.9136 3.43798 45.8697 3.50045 45.8416L6.44733 44.6457L3.50045 43.4497C3.43798 43.4216 3.38591 43.3795 3.34426 43.3233C3.30261 43.2636 3.28178 43.1986 3.28178 43.1283V42.9545C3.28178 42.8597 3.31649 42.7789 3.38591 42.7121C3.45186 42.6454 3.53169 42.612 3.62541 42.612H6.73368C6.79963 42.612 6.85517 42.6349 6.90029 42.6805C6.94542 42.7262 6.96797 42.7824 6.96797 42.8491C6.96797 42.9159 6.94542 42.9738 6.90029 43.023C6.85517 43.0686 6.79963 43.0915 6.73368 43.0915H3.7764L6.7493 44.3085C6.81525 44.3366 6.86906 44.3822 6.9107 44.4455C6.94888 44.5052 6.96797 44.5719 6.96797 44.6457C6.96797 44.7194 6.94888 44.7879 6.9107 44.8511C6.86906 44.9108 6.81525 44.9547 6.7493 44.9828L3.7764 46.1998H6.73368C6.79963 46.1998 6.85517 46.2244 6.90029 46.2736C6.94542 46.3193 6.96797 46.3754 6.96797 46.4422ZM3.74516 41.5107C3.74516 41.5844 3.71913 41.6476 3.66706 41.7003C3.615 41.753 3.55252 41.7793 3.47963 41.7793H3.4588C3.38591 41.7793 3.32343 41.753 3.27137 41.7003C3.2193 41.6476 3.19327 41.5844 3.19327 41.5107V41.479C3.19327 41.4053 3.2193 41.3421 3.27137 41.2894C3.32343 41.2367 3.38591 41.2104 3.4588 41.2104H3.47963C3.55252 41.2104 3.615 41.2367 3.66706 41.2894C3.71913 41.3421 3.74516 41.4053 3.74516 41.479V41.5107ZM6.96797 41.5001C6.96797 41.5668 6.94542 41.623 6.90029 41.6687C6.85517 41.7144 6.79963 41.7372 6.73368 41.7372H4.5001C4.43415 41.7372 4.37862 41.7144 4.33349 41.6687C4.2849 41.623 4.2606 41.5668 4.2606 41.5001C4.2606 41.4299 4.28317 41.3719 4.32828 41.3263C4.37341 41.2806 4.43068 41.2578 4.5001 41.2578H6.73368C6.79963 41.2578 6.85517 41.2824 6.90029 41.3315C6.94542 41.3772 6.96797 41.4334 6.96797 41.5001ZM6.96797 40.1882C6.96797 40.2549 6.94542 40.3111 6.90029 40.3568C6.85517 40.4024 6.79963 40.4252 6.73368 40.4252H3.35467C3.28872 40.4252 3.23319 40.4024 3.18806 40.3568C3.13947 40.3111 3.11517 40.2549 3.11517 40.1882C3.11517 40.1179 3.13773 40.06 3.18286 40.0143C3.22798 39.9686 3.28525 39.9458 3.35467 39.9458H6.73368C6.79963 39.9458 6.85517 39.9704 6.90029 40.0196C6.94542 40.0652 6.96797 40.1214 6.96797 40.1882ZM6.96797 38.8762C6.96797 38.9429 6.94542 38.9991 6.90029 39.0448C6.85517 39.0904 6.79963 39.1133 6.73368 39.1133H3.35467C3.28872 39.1133 3.23319 39.0904 3.18806 39.0448C3.13947 38.9991 3.11517 38.9429 3.11517 38.8762C3.11517 38.8095 3.13947 38.7533 3.18806 38.7076C3.23319 38.6584 3.28872 38.6338 3.35467 38.6338H5.48413L4.3387 37.38C4.29358 37.3273 4.27101 37.2746 4.27101 37.2219C4.27101 37.1411 4.29358 37.0832 4.3387 37.0481C4.38382 37.0094 4.43762 36.9901 4.5001 36.9901C4.55911 36.9901 4.61811 37.0199 4.67712 37.0796L5.34875 37.8383L6.59832 36.8847C6.64344 36.8496 6.6903 36.8321 6.73889 36.8321C6.80831 36.8321 6.86384 36.8549 6.9055 36.9005C6.94715 36.9462 6.96797 37.0042 6.96797 37.0744C6.96797 37.1095 6.9593 37.1447 6.94194 37.1797C6.92459 37.2149 6.90029 37.2448 6.86906 37.2694L5.65074 38.1755L6.06205 38.6338H6.73368C6.79963 38.6338 6.85517 38.6584 6.90029 38.7076C6.94542 38.7533 6.96797 38.8095 6.96797 38.8762Z" fill="#252525"/>
</g>
<g id="Vector_12">
<path id="Vector_13" d="M3.38568 46.5796L3.53908 46.4243L3.53712 46.4223L3.5351 46.4204L3.38568 46.5796ZM3.34403 45.9737L3.51758 46.1054L3.51946 46.1029L3.52126 46.1003L3.34403 45.9737ZM3.50023 45.842L3.41947 45.6382L3.41577 45.6397L3.41212 45.6414L3.50023 45.842ZM6.4471 44.646L6.52786 44.8498L7.02989 44.646L6.52786 44.4423L6.4471 44.646ZM3.50023 43.4501L3.41212 43.6507L3.41577 43.6524L3.41947 43.6539L3.50023 43.4501ZM3.34403 43.3237L3.1668 43.4503L3.16861 43.4528L3.17048 43.4554L3.34403 43.3237ZM3.38568 42.7125L3.5351 42.8717L3.53712 42.8697L3.53908 42.8678L3.38568 42.7125ZM6.90006 43.0234L7.05346 43.1786L7.0563 43.1757L7.05904 43.1727L6.90006 43.0234ZM3.77617 43.0919V42.8723L3.69481 43.2953L3.77617 43.0919ZM6.74908 44.3089L6.83326 44.1065L6.83185 44.106L6.83044 44.1054L6.74908 44.3089ZM6.91048 44.4458L7.09261 44.3266L7.09181 44.3253L7.09098 44.3241L6.91048 44.4458ZM6.91048 44.8515L7.08771 44.9781L7.09185 44.9722L7.09559 44.966L6.91048 44.8515ZM6.74908 44.9832L6.83044 45.1867L6.83185 45.1861L6.83326 45.1855L6.74908 44.9832ZM3.77617 46.2002L3.69481 45.9967L3.77617 46.4197V46.2002ZM6.90006 46.274L6.74109 46.4234L6.74382 46.4263L6.74667 46.4292L6.90006 46.274ZM6.75081 46.4426C6.75081 46.4467 6.75047 46.4493 6.75022 46.4506C6.7501 46.4512 6.74999 46.4516 6.74993 46.4519C6.7499 46.452 6.74988 46.452 6.74987 46.4521C6.74984 46.4521 6.74984 46.4521 6.74984 46.4522C6.74984 46.4522 6.74984 46.4521 6.74984 46.4521C6.74986 46.4521 6.74986 46.4521 6.74984 46.4521C6.74984 46.4521 6.74979 46.4522 6.74965 46.4525C6.7494 46.4528 6.74856 46.454 6.74667 46.4559L7.05346 46.7664C7.14077 46.678 7.18468 46.5653 7.18468 46.4426H6.75081ZM6.74667 46.4559C6.74477 46.4579 6.7436 46.4587 6.74322 46.459C6.74302 46.4591 6.74291 46.4592 6.74291 46.4592C6.74289 46.4592 6.74289 46.4592 6.74291 46.4592C6.74292 46.4592 6.74292 46.4592 6.74292 46.4592C6.74292 46.4592 6.74291 46.4592 6.74286 46.4592C6.74281 46.4592 6.74274 46.4592 6.74263 46.4592C6.74242 46.4593 6.74201 46.4594 6.74135 46.4595C6.74007 46.4598 6.73755 46.4601 6.73345 46.4601V46.8992C6.85479 46.8992 6.96616 46.8547 7.05346 46.7664L6.74667 46.4559ZM6.73345 46.4601H3.62518V46.8992H6.73345V46.4601ZM3.62518 46.4601C3.58868 46.4601 3.56413 46.4497 3.53908 46.4243L3.23229 46.7348C3.33914 46.8429 3.47425 46.8992 3.62518 46.8992V46.4601ZM3.5351 46.4204C3.50773 46.3941 3.49849 46.3704 3.49849 46.3372H3.06462C3.06462 46.4937 3.12479 46.6315 3.23627 46.7387L3.5351 46.4204ZM3.49849 46.3372V46.1633H3.06462V46.3372H3.49849ZM3.49849 46.1633C3.49569 46.1283 3.49454 46.1318 3.51758 46.1054L3.17048 45.842C3.11022 45.928 3.06742 46.0579 3.06462 46.1633H3.49849ZM3.52126 46.1003C3.5451 46.0629 3.55234 46.0565 3.58834 46.0426L3.41212 45.6414C3.32316 45.6837 3.22627 45.7651 3.1668 45.8471L3.52126 46.1003ZM3.58098 46.0457L6.52786 44.8498L6.36635 44.4423L3.41947 45.6382L3.58098 46.0457ZM6.52786 44.4423L3.58098 43.2464L3.41947 43.6539L6.36635 44.8498L6.52786 44.4423ZM3.58834 43.2495C3.55049 43.2345 3.54146 43.2271 3.51758 43.192L3.17048 43.4554C3.22991 43.5327 3.32501 43.6096 3.41212 43.6507L3.58834 43.2495ZM3.52126 43.1971C3.49637 43.1657 3.49583 43.1647 3.49849 43.1287H3.06462C3.06728 43.2333 3.10839 43.3622 3.1668 43.4503L3.52126 43.1971ZM3.49849 43.1287V42.9549H3.06462V43.1287H3.49849ZM3.49849 42.9549C3.49849 42.9217 3.50773 42.898 3.5351 42.8717L3.23627 42.5534C3.12479 42.6605 3.06462 42.7984 3.06462 42.9549H3.49849ZM3.53908 42.8678C3.56413 42.8424 3.58868 42.8319 3.62518 42.8319V42.3929C3.47425 42.3929 3.33914 42.4492 3.23229 42.5573L3.53908 42.8678ZM3.62518 42.8319H6.73345V42.3929H3.62518V42.8319ZM6.73345 42.8319C6.73755 42.8319 6.74007 42.8323 6.74135 42.8325C6.74201 42.8327 6.74242 42.8328 6.74263 42.8328C6.74274 42.8329 6.74281 42.8329 6.74286 42.8329C6.74291 42.8329 6.74292 42.8329 6.74292 42.8329C6.74292 42.8329 6.74292 42.8329 6.74291 42.8329C6.74289 42.8329 6.74289 42.8329 6.74291 42.8329C6.74291 42.8329 6.74302 42.833 6.74322 42.8331C6.7436 42.8334 6.74477 42.8342 6.74667 42.8361L7.05346 42.5257C6.96616 42.4374 6.85479 42.3929 6.73345 42.3929V42.8319ZM6.74667 42.8361C6.74856 42.8381 6.7494 42.8392 6.74965 42.8396C6.74979 42.8398 6.74984 42.84 6.74984 42.84C6.74986 42.84 6.74986 42.84 6.74984 42.84C6.74984 42.8399 6.74984 42.8399 6.74984 42.8399C6.74984 42.8399 6.74984 42.84 6.74987 42.84C6.74988 42.84 6.7499 42.8401 6.74993 42.8402C6.74999 42.8404 6.7501 42.8409 6.75022 42.8415C6.75047 42.8428 6.75081 42.8454 6.75081 42.8495H7.18468C7.18468 42.7267 7.14077 42.614 7.05346 42.5257L6.74667 42.8361ZM6.75081 42.8495C6.75461 42.8753 6.76159 42.8572 6.74109 42.874L7.05904 43.1727C7.12878 43.0911 7.18088 42.9572 7.18468 42.8495H6.75081ZM6.74667 42.8681C6.74477 42.8701 6.7436 42.8709 6.74322 42.8712C6.74302 42.8713 6.74291 42.8714 6.74291 42.8714C6.74289 42.8714 6.74289 42.8714 6.74291 42.8714C6.74292 42.8714 6.74292 42.8714 6.74292 42.8714C6.74292 42.8714 6.74291 42.8714 6.74286 42.8714C6.74281 42.8714 6.74274 42.8714 6.74263 42.8715C6.74242 42.8715 6.74201 42.8716 6.74135 42.8717C6.74007 42.872 6.73755 42.8723 6.73345 42.8723V43.3114C6.85479 43.3114 6.96616 43.2669 7.05346 43.1786L6.74667 42.8681ZM6.73345 42.8723H3.77617V43.3114H6.73345V42.8723ZM3.69481 43.2953L6.66772 44.5124L6.83044 44.1054L3.85753 42.8884L3.69481 43.2953ZM6.6649 44.5112C6.70197 44.5243 6.70723 44.5291 6.72998 44.5676L7.09098 44.3241C7.03042 44.2362 6.92808 44.1496 6.83326 44.1065L6.6649 44.5112ZM6.72834 44.5651C6.75129 44.5967 6.75296 44.6031 6.75081 44.646H7.18468C7.18254 44.5415 7.14603 44.4144 7.09261 44.3266L6.72834 44.5651ZM6.75081 44.646C6.75286 44.6897 6.74984 44.7004 6.72537 44.737L7.09559 44.966C7.14747 44.8761 7.18264 44.7499 7.18468 44.646H6.75081ZM6.73325 44.7249C6.7106 44.761 6.70375 44.7667 6.6649 44.7809L6.83326 45.1855C6.9263 45.1436 7.02704 45.0614 7.08771 44.9781L6.73325 44.7249ZM6.66772 44.7797L3.69481 45.9967L3.85753 46.4037L6.83044 45.1867L6.66772 44.7797ZM3.77617 46.4197H6.73345V45.9807H3.77617V46.4197ZM6.73345 46.4197C6.73657 46.4197 6.73811 46.42 6.73842 46.4201C6.73868 46.4201 6.7383 46.4201 6.73762 46.4198C6.73694 46.4195 6.7367 46.4193 6.73703 46.4195C6.7374 46.4198 6.73881 46.4209 6.74109 46.4234L7.05904 46.1246C6.97312 46.031 6.86011 45.9807 6.73345 45.9807V46.4197ZM6.74667 46.4292C6.74856 46.4311 6.7494 46.4323 6.74965 46.4327C6.74979 46.4329 6.74984 46.433 6.74984 46.433C6.74986 46.433 6.74986 46.433 6.74984 46.433C6.74984 46.433 6.74984 46.433 6.74984 46.433C6.74984 46.433 6.74984 46.433 6.74987 46.4331C6.74988 46.4331 6.7499 46.4332 6.74993 46.4333C6.74999 46.4335 6.7501 46.4339 6.75022 46.4346C6.75047 46.4359 6.75081 46.4384 6.75081 46.4426H7.18468C7.18468 46.3198 7.14077 46.2071 7.05346 46.1188L6.74667 46.4292ZM3.27114 41.2898L3.11774 41.1346L3.27114 41.2898ZM3.66683 41.2898L3.82023 41.1346L3.66683 41.2898ZM4.33326 41.6691L4.48666 41.5139L4.48382 41.511L4.48088 41.5082L4.33326 41.6691ZM4.32806 41.3267L4.48146 41.4819L4.32806 41.3267ZM6.90006 41.3319L6.74109 41.4813L6.74382 41.4843L6.74667 41.4871L6.90006 41.3319ZM3.528 41.511C3.528 41.5259 3.52528 41.5335 3.51344 41.5455L3.82023 41.8559C3.91251 41.7625 3.96187 41.6437 3.96187 41.511H3.528ZM3.51344 41.5455C3.50159 41.5575 3.4941 41.5602 3.4794 41.5602V41.9993C3.61049 41.9993 3.72795 41.9493 3.82023 41.8559L3.51344 41.5455ZM3.4794 41.5602H3.45858V41.9993H3.4794V41.5602ZM3.45858 41.5602C3.44388 41.5602 3.43638 41.5575 3.42454 41.5455L3.11774 41.8559C3.21003 41.9493 3.32749 41.9993 3.45858 41.9993V41.5602ZM3.42454 41.5455C3.41269 41.5335 3.40998 41.5259 3.40998 41.511H2.97611C2.97611 41.6437 3.02546 41.7625 3.11774 41.8559L3.42454 41.5455ZM3.40998 41.511V41.4794H2.97611V41.511H3.40998ZM3.40998 41.4794C3.40998 41.4646 3.41269 41.457 3.42454 41.445L3.11774 41.1346C3.02546 41.2279 2.97611 41.3468 2.97611 41.4794H3.40998ZM3.42454 41.445C3.43638 41.433 3.44388 41.4303 3.45858 41.4303V40.9912C3.32749 40.9912 3.21003 41.0412 3.11774 41.1346L3.42454 41.445ZM3.45858 41.4303H3.4794V40.9912H3.45858V41.4303ZM3.4794 41.4303C3.4941 41.4303 3.50159 41.433 3.51344 41.445L3.82023 41.1346C3.72795 41.0412 3.61049 40.9912 3.4794 40.9912V41.4303ZM3.51344 41.445C3.52528 41.457 3.528 41.4646 3.528 41.4794H3.96187C3.96187 41.3468 3.91251 41.2279 3.82023 41.1346L3.51344 41.445ZM3.528 41.4794V41.511H3.96187V41.4794H3.528ZM6.75081 41.5005C6.75081 41.5046 6.75047 41.5072 6.75022 41.5085C6.7501 41.5092 6.74999 41.5096 6.74993 41.5098C6.7499 41.5099 6.74988 41.51 6.74987 41.51C6.74984 41.5101 6.74984 41.5101 6.74984 41.5101C6.74984 41.5101 6.74984 41.5101 6.74984 41.5101C6.74986 41.5101 6.74986 41.5101 6.74984 41.5101C6.74984 41.5101 6.74979 41.5102 6.74965 41.5104C6.7494 41.5108 6.74856 41.512 6.74667 41.5139L7.05346 41.8243C7.14077 41.736 7.18468 41.6233 7.18468 41.5005H6.75081ZM6.74667 41.5139C6.74477 41.5158 6.7436 41.5166 6.74322 41.5169C6.74302 41.517 6.74291 41.5171 6.74291 41.5171C6.74289 41.5171 6.74289 41.5171 6.74291 41.5171C6.74292 41.5171 6.74292 41.5171 6.74292 41.5171C6.74292 41.5171 6.74291 41.5171 6.74286 41.5171C6.74281 41.5171 6.74274 41.5171 6.74263 41.5172C6.74242 41.5172 6.74201 41.5174 6.74135 41.5175C6.74007 41.5177 6.73755 41.5181 6.73345 41.5181V41.9571C6.85479 41.9571 6.96616 41.9127 7.05346 41.8243L6.74667 41.5139ZM6.73345 41.5181H4.49987V41.9571H6.73345V41.5181ZM4.49987 41.5181C4.49578 41.5181 4.49326 41.5177 4.49198 41.5175C4.49132 41.5174 4.49091 41.5172 4.4907 41.5172C4.49059 41.5171 4.49051 41.5171 4.49047 41.5171C4.49042 41.5171 4.49041 41.5171 4.49041 41.5171C4.4904 41.5171 4.49041 41.5171 4.49042 41.5171C4.49044 41.5171 4.49044 41.5171 4.49042 41.5171C4.49042 41.5171 4.49032 41.517 4.49011 41.5169C4.48973 41.5166 4.48856 41.5158 4.48666 41.5139L4.17987 41.8243C4.26717 41.9127 4.37854 41.9571 4.49987 41.9571V41.5181ZM4.48088 41.5082C4.47842 41.5059 4.47736 41.5045 4.47708 41.5041C4.47684 41.5038 4.47705 41.504 4.47734 41.5047C4.47764 41.5054 4.4777 41.5058 4.47766 41.5055C4.47759 41.5052 4.47732 41.5037 4.47732 41.5005H4.04344C4.04344 41.6287 4.09313 41.743 4.18565 41.83L4.48088 41.5082ZM4.47732 41.5005C4.47732 41.4894 4.47902 41.4851 4.47913 41.4848C4.47925 41.4845 4.47932 41.4844 4.47942 41.4842C4.47954 41.4841 4.48007 41.4833 4.48146 41.4819L4.17466 41.1714C4.08508 41.2621 4.04344 41.3777 4.04344 41.5005H4.47732ZM4.48146 41.4819C4.48285 41.4805 4.48364 41.4799 4.48381 41.4798C4.48396 41.4797 4.48407 41.4796 4.48436 41.4795C4.48466 41.4794 4.48891 41.4777 4.49987 41.4777V41.0386C4.37849 41.0386 4.26424 41.0808 4.17466 41.1714L4.48146 41.4819ZM4.49987 41.4777H6.73345V41.0386H4.49987V41.4777ZM6.73345 41.4777C6.73657 41.4777 6.73811 41.478 6.73842 41.478C6.73868 41.4781 6.7383 41.478 6.73762 41.4777C6.73694 41.4774 6.7367 41.4772 6.73703 41.4775C6.7374 41.4777 6.73881 41.4788 6.74109 41.4813L7.05904 41.1825C6.97312 41.0889 6.86011 41.0386 6.73345 41.0386V41.4777ZM6.74667 41.4871C6.74856 41.4891 6.7494 41.4902 6.74965 41.4906C6.74979 41.4908 6.74984 41.491 6.74984 41.491C6.74986 41.491 6.74986 41.491 6.74984 41.491C6.74984 41.4909 6.74984 41.4909 6.74984 41.4909C6.74984 41.4909 6.74984 41.491 6.74987 41.491C6.74988 41.491 6.7499 41.4911 6.74993 41.4912C6.74999 41.4914 6.7501 41.4918 6.75022 41.4925C6.75047 41.4938 6.75081 41.4964 6.75081 41.5005H7.18468C7.18468 41.3777 7.14077 41.265 7.05346 41.1767L6.74667 41.4871ZM3.18784 40.3571L3.34123 40.2019L3.33839 40.199L3.33545 40.1963L3.18784 40.3571ZM3.18263 40.0147L3.33603 40.1699L3.18263 40.0147ZM6.90006 40.02L6.74109 40.1693L6.74382 40.1723L6.74667 40.1752L6.90006 40.02ZM6.75081 40.1886C6.75081 40.1927 6.75047 40.1952 6.75022 40.1965C6.7501 40.1972 6.74999 40.1976 6.74993 40.1978C6.7499 40.1979 6.74988 40.198 6.74987 40.1981C6.74984 40.1981 6.74984 40.1981 6.74984 40.1981C6.74984 40.1981 6.74984 40.1981 6.74984 40.1981C6.74986 40.1981 6.74986 40.1981 6.74984 40.1981C6.74984 40.1981 6.74979 40.1982 6.74965 40.1984C6.7494 40.1988 6.74856 40.2 6.74667 40.2019L7.05346 40.5124C7.14077 40.424 7.18468 40.3113 7.18468 40.1886H6.75081ZM6.74667 40.2019C6.74477 40.2038 6.7436 40.2047 6.74322 40.2049C6.74302 40.2051 6.74291 40.2051 6.74291 40.2051C6.74289 40.2051 6.74289 40.2051 6.74291 40.2051C6.74292 40.2051 6.74292 40.2051 6.74292 40.2051C6.74292 40.2051 6.74291 40.2051 6.74286 40.2051C6.74281 40.2052 6.74274 40.2052 6.74263 40.2052C6.74242 40.2053 6.74201 40.2054 6.74135 40.2055C6.74007 40.2058 6.73755 40.2061 6.73345 40.2061V40.6451C6.85479 40.6451 6.96616 40.6007 7.05346 40.5124L6.74667 40.2019ZM6.73345 40.2061H3.35445L3.35445 40.6451H6.73345V40.2061ZM3.35445 40.2061C3.35036 40.2061 3.34783 40.2058 3.34655 40.2055C3.3459 40.2054 3.34549 40.2053 3.34527 40.2052C3.34516 40.2052 3.34508 40.2052 3.34504 40.2051C3.345 40.2051 3.34499 40.2051 3.34499 40.2051C3.34498 40.2051 3.34499 40.2051 3.345 40.2051C3.34501 40.2051 3.34501 40.2051 3.345 40.2051C3.345 40.2051 3.34489 40.2051 3.34468 40.2049C3.3443 40.2047 3.34313 40.2038 3.34123 40.2019L3.03444 40.5124C3.12174 40.6007 3.23311 40.6451 3.35445 40.6451L3.35445 40.2061ZM3.33545 40.1963C3.33299 40.194 3.33193 40.1925 3.33166 40.1922C3.33142 40.1918 3.33162 40.1921 3.33192 40.1928C3.33222 40.1934 3.33227 40.1938 3.33223 40.1936C3.33217 40.1933 3.33188 40.1917 3.33188 40.1886H2.89801C2.89801 40.3167 2.9477 40.4311 3.04022 40.518L3.33545 40.1963ZM3.33188 40.1886C3.33188 40.1775 3.3336 40.1731 3.33371 40.1729C3.33383 40.1726 3.33389 40.1724 3.33399 40.1723C3.33411 40.1721 3.33464 40.1713 3.33603 40.1699L3.02923 39.8595C2.93965 39.9501 2.89801 40.0657 2.89801 40.1886H3.33188ZM3.33603 40.1699C3.33742 40.1685 3.33821 40.168 3.33838 40.1679C3.33853 40.1678 3.33864 40.1677 3.33893 40.1676C3.33923 40.1674 3.34349 40.1657 3.35445 40.1657V39.7267C3.23306 39.7267 3.11882 39.7688 3.02923 39.8595L3.33603 40.1699ZM3.35445 40.1657H6.73345V39.7267H3.35445V40.1657ZM6.73345 40.1657C6.73657 40.1657 6.73811 40.166 6.73842 40.1661C6.73868 40.1661 6.7383 40.1661 6.73762 40.1658C6.73694 40.1655 6.7367 40.1652 6.73703 40.1655C6.7374 40.1658 6.73881 40.1668 6.74109 40.1693L7.05904 39.8706C6.97312 39.777 6.86011 39.7267 6.73345 39.7267V40.1657ZM6.74667 40.1752C6.74856 40.1771 6.7494 40.1783 6.74965 40.1787C6.74979 40.1789 6.74984 40.179 6.74984 40.179C6.74986 40.179 6.74986 40.179 6.74984 40.179C6.74984 40.179 6.74984 40.179 6.74984 40.179C6.74984 40.179 6.74984 40.179 6.74987 40.179C6.74988 40.1791 6.7499 40.1792 6.74993 40.1793C6.74999 40.1795 6.7501 40.1799 6.75022 40.1805C6.75047 40.1818 6.75081 40.1844 6.75081 40.1886H7.18468C7.18468 40.0658 7.14077 39.9531 7.05346 39.8647L6.74667 40.1752ZM3.18784 39.0452L3.34123 38.89L3.33839 38.8871L3.33545 38.8843L3.18784 39.0452ZM3.18784 38.708L3.33545 38.8689L3.34134 38.8633L3.34681 38.8574L3.18784 38.708ZM5.4839 38.6342V38.8538H5.97985L5.6432 38.4852L5.4839 38.6342ZM4.33847 37.3803L4.17453 37.5241L4.17681 37.5268L4.17916 37.5294L4.33847 37.3803ZM4.33847 37.0484L4.47074 37.2225L4.47474 37.2194L4.4786 37.216L4.33847 37.0484ZM4.6769 37.08L4.83848 36.9336L4.8345 36.9291L4.83029 36.9248L4.6769 37.08ZM5.34853 37.8387L5.18694 37.9852L5.31998 38.1354L5.47916 38.0139L5.34853 37.8387ZM6.59809 36.8852L6.72872 37.0604L6.72954 37.0598L6.73036 37.0591L6.59809 36.8852ZM6.90527 36.9009L6.74586 37.0499L6.90527 36.9009ZM6.86883 37.2697L6.99731 37.4466L6.99968 37.4448L7.00201 37.443L6.86883 37.2697ZM5.65051 38.1759L5.52203 37.999L5.32815 38.1432L5.48991 38.3234L5.65051 38.1759ZM6.06182 38.6342L5.90122 38.7818L5.96578 38.8538H6.06182V38.6342ZM6.90006 38.708L6.74109 38.8574L6.74382 38.8604L6.74667 38.8632L6.90006 38.708ZM6.75081 38.8766C6.75081 38.8807 6.75047 38.8833 6.75022 38.8846C6.7501 38.8852 6.74999 38.8857 6.74993 38.8859C6.7499 38.886 6.74988 38.8861 6.74987 38.8861C6.74984 38.8861 6.74984 38.8862 6.74984 38.8862C6.74984 38.8862 6.74984 38.8862 6.74984 38.8861C6.74986 38.8861 6.74986 38.8861 6.74984 38.8861C6.74984 38.8861 6.74979 38.8863 6.74965 38.8865C6.7494 38.8868 6.74856 38.888 6.74667 38.89L7.05346 39.2004C7.14077 39.1121 7.18468 38.9994 7.18468 38.8766H6.75081ZM6.74667 38.89C6.74477 38.8919 6.7436 38.8927 6.74322 38.893C6.74302 38.8931 6.74291 38.8932 6.74291 38.8932C6.74289 38.8932 6.74289 38.8932 6.74291 38.8932C6.74292 38.8932 6.74292 38.8932 6.74292 38.8932C6.74292 38.8932 6.74291 38.8932 6.74286 38.8932C6.74281 38.8932 6.74274 38.8932 6.74263 38.8933C6.74242 38.8933 6.74201 38.8934 6.74135 38.8936C6.74007 38.8938 6.73755 38.8941 6.73345 38.8941V39.3332C6.85479 39.3332 6.96616 39.2887 7.05346 39.2004L6.74667 38.89ZM6.73345 38.8941H3.35445V39.3332H6.73345V38.8941ZM3.35445 38.8941C3.35036 38.8941 3.34783 38.8938 3.34655 38.8936C3.3459 38.8934 3.34549 38.8933 3.34527 38.8933C3.34516 38.8932 3.34508 38.8932 3.34504 38.8932C3.345 38.8932 3.34499 38.8932 3.34499 38.8932C3.34498 38.8932 3.34499 38.8932 3.345 38.8932C3.34501 38.8932 3.34501 38.8932 3.345 38.8932C3.345 38.8932 3.34489 38.8931 3.34468 38.893C3.3443 38.8927 3.34313 38.8919 3.34123 38.89L3.03444 39.2004C3.12174 39.2887 3.23311 39.3332 3.35445 39.3332V38.8941ZM3.33545 38.8843C3.33299 38.882 3.33193 38.8806 3.33166 38.8802C3.33142 38.8799 3.33162 38.8801 3.33192 38.8808C3.33222 38.8815 3.33227 38.8819 3.33223 38.8816C3.33217 38.8813 3.33188 38.8797 3.33188 38.8766H2.89801C2.89801 39.0047 2.9477 39.1191 3.04022 39.206L3.33545 38.8843ZM3.33188 38.8766C3.33188 38.8734 3.33217 38.8719 3.33223 38.8716C3.33227 38.8713 3.33222 38.8717 3.33192 38.8724C3.33162 38.8731 3.33142 38.8733 3.33166 38.873C3.33193 38.8726 3.33299 38.8712 3.33545 38.8689L3.04022 38.5471C2.9477 38.6341 2.89801 38.7484 2.89801 38.8766H3.33188ZM3.34681 38.8574C3.3491 38.8549 3.3505 38.8538 3.35087 38.8535C3.3512 38.8533 3.35096 38.8535 3.35028 38.8538C3.3496 38.8541 3.34922 38.8542 3.34948 38.8541C3.34979 38.854 3.35133 38.8538 3.35445 38.8538V38.4147C3.2278 38.4147 3.11478 38.465 3.02887 38.5586L3.34681 38.8574ZM3.35445 38.8538H5.4839V38.4147H3.35445V38.8538ZM5.6432 38.4852L4.49778 37.2313L4.17916 37.5294L5.32459 38.7832L5.6432 38.4852ZM4.50241 37.2366C4.49134 37.2236 4.4876 37.216 4.48676 37.214C4.4862 37.2128 4.48773 37.216 4.48773 37.2223H4.05385C4.05385 37.3429 4.10644 37.4446 4.17453 37.5241L4.50241 37.2366ZM4.48773 37.2223C4.48773 37.2017 4.49072 37.1957 4.48955 37.1987C4.48884 37.2006 4.48707 37.2044 4.48359 37.2092C4.48003 37.214 4.47563 37.2186 4.47074 37.2225L4.20621 36.8745C4.08845 36.9661 4.05385 37.1024 4.05385 37.2223H4.48773ZM4.4786 37.216C4.49169 37.2001 4.4742 37.2068 4.49987 37.21V36.771C4.40059 36.7741 4.2755 36.8194 4.19835 36.8809L4.4786 37.216ZM4.49987 37.21C4.4919 37.21 4.48838 37.2077 4.49137 37.2092C4.49533 37.2113 4.50631 37.2179 4.5235 37.2353L4.83029 36.9248C4.74763 36.8412 4.6367 36.771 4.49987 36.771V37.21ZM4.51531 37.2265L5.18694 37.9852L5.51012 37.6922L4.83848 36.9336L4.51531 37.2265ZM5.47916 38.0139L6.72872 37.0604L6.46745 36.7098L5.2179 37.6635L5.47916 38.0139ZM6.73036 37.0591C6.738 37.0531 6.74206 37.0516 6.74242 37.0515C6.74262 37.0514 6.74223 37.0515 6.74135 37.0517C6.74045 37.0519 6.73951 37.052 6.73866 37.052V36.6129C6.6518 36.6163 6.53821 36.6579 6.46582 36.7111L6.73036 37.0591ZM6.73866 37.052C6.74428 37.052 6.7478 37.0524 6.74957 37.0527C6.7513 37.0531 6.75153 37.0533 6.75073 37.053C6.74988 37.0526 6.74867 37.052 6.74745 37.0511C6.74623 37.0503 6.74571 37.0497 6.74586 37.0499L7.06468 36.7521C6.97639 36.6553 6.85991 36.6129 6.73866 36.6129V37.052ZM6.74586 37.0499C6.74733 37.0515 6.74775 37.0523 6.74825 37.0536C6.74892 37.0555 6.75081 37.0617 6.75081 37.0748H7.18468C7.18468 36.9571 7.14821 36.8436 7.06468 36.7521L6.74586 37.0499ZM6.75081 37.0748C6.75081 37.0739 6.75095 37.0735 6.75078 37.0742C6.75058 37.075 6.74987 37.0776 6.74768 37.082L7.13575 37.2783C7.16254 37.2212 7.18306 37.1367 7.18468 37.0748H6.75081ZM6.74768 37.082C6.74246 37.0957 6.74882 37.0878 6.73563 37.0964L7.00201 37.443C7.05131 37.4025 7.10626 37.3349 7.13575 37.2783L6.74768 37.082ZM6.74035 37.0928L5.52203 37.999L5.77899 38.3528L6.99731 37.4466L6.74035 37.0928ZM5.48991 38.3234L5.90122 38.7818L6.22241 38.4867L5.81111 38.0283L5.48991 38.3234ZM6.06182 38.8538H6.73345V38.4147H6.06182V38.8538ZM6.73345 38.8538C6.73657 38.8538 6.73811 38.854 6.73842 38.8541C6.73868 38.8542 6.7383 38.8541 6.73762 38.8538C6.73694 38.8535 6.7367 38.8533 6.73703 38.8535C6.7374 38.8538 6.73881 38.8549 6.74109 38.8574L7.05904 38.5586C6.97312 38.465 6.86011 38.4147 6.73345 38.4147V38.8538ZM6.74667 38.8632C6.74856 38.8651 6.7494 38.8663 6.74965 38.8667C6.74979 38.8669 6.74984 38.867 6.74984 38.867C6.74986 38.867 6.74986 38.867 6.74984 38.867C6.74984 38.867 6.74984 38.867 6.74984 38.867C6.74984 38.867 6.74984 38.867 6.74987 38.8671C6.74988 38.8671 6.7499 38.8672 6.74993 38.8673C6.74999 38.8675 6.7501 38.8679 6.75022 38.8686C6.75047 38.8699 6.75081 38.8725 6.75081 38.8766H7.18468C7.18468 38.7538 7.14077 38.6411 7.05346 38.5528L6.74667 38.8632Z" fill="#252525"/>
</g>
</g>
<g id="Rectangle 3">
<g id="Vector_14">
<path id="Vector_15" d="M8.02663 18.8726C8.02663 18.5695 8.26028 18.3238 8.5485 18.3238H24.1005C24.3887 18.3238 24.6223 18.5695 24.6223 18.8726C24.6223 19.1757 24.3887 19.4214 24.1005 19.4214H8.5485C8.26028 19.4214 8.02663 19.1757 8.02663 18.8726Z" fill="#252525"/>
</g>
</g>
<g id="Rectangle 3.1">
<g id="Vector_16">
<path id="Vector_17" d="M14.1013 36.6538C14.1013 36.3507 14.3441 36.105 14.6436 36.105H16.3791C16.6787 36.105 16.9215 36.3507 16.9215 36.6538C16.9215 36.9569 16.6787 37.2026 16.3791 37.2026H14.6436C14.3441 37.2026 14.1013 36.9569 14.1013 36.6538Z" fill="#252525"/>
</g>
</g>
<g id="Rectangle 3.2">
<g id="Vector_18">
<path id="Vector_19" d="M8.46095 34.6783C8.46095 34.3752 8.70377 34.1295 9.0033 34.1295H16.3792C16.6787 34.1295 16.9215 34.3752 16.9215 34.6783C16.9215 34.9814 16.6787 35.2271 16.3792 35.2271H9.0033C8.70377 35.2271 8.46095 34.9814 8.46095 34.6783Z" fill="#252525"/>
</g>
</g>
</g>
</g>
<g id="Vector_20">
<path id="Vector_21" d="M45.2543 27.3791L44.5225 27.7953L45.2543 27.3791ZM45.2543 59.1576V60H45.8852L46.0622 59.394L45.2543 59.1576ZM27.5462 59.1576H26.7045V60H27.5462V59.1576ZM27.5462 27.3791L26.8787 26.8659L26.7045 27.0929V27.3791H27.5462ZM38.0398 4.11857V3.27613H37.1981V4.11857H38.0398ZM38.0398 18.6849H37.1981V19.0431L37.4558 19.2915L38.0398 18.6849ZM34.1047 18.8337L34.7723 19.3469L34.9464 19.12V18.8337H34.1047ZM34.1047 4.11857H34.9464V3.27613H34.1047V4.11857ZM32.793 0.842434V0H31.9513V0.842434H32.793ZM39.3516 0.842434H40.1933V0H39.3516V0.842434ZM39.3516 4.11857V4.961H40.1933V4.11857H39.3516ZM32.793 4.11857H31.9513V4.961H32.793V4.11857ZM27.5462 31.9756L27.3393 31.159L26.7045 31.3201V31.9756H27.5462ZM46.3379 29.7066L47.1252 29.4084L46.3379 29.7066ZM27.5462 44.4841L27.9671 45.2136L27.5462 44.4841ZM27.5462 58.1057L27.9671 57.3762L27.5462 58.1057ZM45.2543 58.3151H27.5462V60H45.2543V58.3151ZM37.1981 4.11857V18.6849H38.8816V4.11857H37.1981ZM34.9464 18.8337V4.11857H33.263V18.8337H34.9464ZM32.793 1.68487H39.3516V0H32.793V1.68487ZM38.5099 0.842434V4.11857H40.1933V0.842434H38.5099ZM33.6347 4.11857V0.842434H31.9513V4.11857H33.6347ZM32.793 4.961H34.1047V3.27613H32.793V4.961ZM39.3516 3.27613H38.0398V4.961H39.3516V3.27613ZM33.4372 18.3205L26.8787 26.8659L28.2137 27.8923L34.7723 19.3469L33.4372 18.3205ZM38.0398 18.6849C37.4558 19.2915 37.4558 19.2915 37.4558 19.2915C37.4558 19.2915 37.4558 19.2915 37.4558 19.2916C37.4559 19.2917 37.456 19.2917 37.4563 19.292C37.4568 19.2925 37.4575 19.2932 37.4585 19.2942C37.4609 19.2965 37.4641 19.2995 37.4686 19.3039C37.4779 19.3129 37.4912 19.3259 37.5094 19.3435C37.5462 19.3795 37.5994 19.4317 37.6691 19.5006C37.8097 19.6395 38.0105 19.8398 38.2606 20.0945C38.7634 20.6064 39.449 21.3208 40.2062 22.1586C41.7257 23.8393 43.4729 25.9401 44.5225 27.7953L45.9862 26.9629C44.8577 24.982 42.9977 22.7356 41.4545 21.0282C40.6804 20.172 39.9707 19.4323 39.4611 18.9133C39.205 18.6526 38.9954 18.4435 38.852 18.3018C38.7797 18.2304 38.7226 18.1743 38.6846 18.1373C38.6653 18.1184 38.6501 18.1037 38.6402 18.094C38.6351 18.0891 38.6311 18.0852 38.6284 18.0827C38.6271 18.0814 38.626 18.0803 38.6253 18.0796C38.6249 18.0793 38.6246 18.079 38.6244 18.0788C38.6243 18.0786 38.6242 18.0786 38.6242 18.0785C38.6241 18.0784 38.624 18.0783 38.0398 18.6849ZM27.5462 31.9756C27.7531 32.7922 27.753 32.7922 27.753 32.7922C27.753 32.7922 27.7531 32.7922 27.7532 32.7922C27.7534 32.7921 27.7537 32.792 27.7542 32.7919C27.7554 32.7916 27.7569 32.7912 27.7592 32.7906C27.7639 32.7895 27.7707 32.7878 27.7801 32.7854C27.7995 32.7805 27.8276 32.7735 27.8656 32.7642C27.9425 32.7453 28.0547 32.718 28.2025 32.6829C28.5001 32.6122 28.9306 32.5126 29.4773 32.3932C30.5752 32.1533 32.1145 31.8397 33.9227 31.536C37.5485 30.9264 42.1588 30.3672 46.3018 30.5483L46.3741 28.8649C42.0939 28.6835 37.3083 29.2588 33.644 29.8744C31.8072 30.1831 30.2279 30.5048 29.1184 30.747C28.5615 30.8686 28.1161 30.9717 27.8138 31.0435C27.6616 31.0797 27.5428 31.1086 27.4638 31.128C27.4238 31.1379 27.3926 31.1456 27.3722 31.1507C27.3618 31.1533 27.3536 31.1554 27.3483 31.1567C27.3455 31.1574 27.3433 31.158 27.3419 31.1583C27.3411 31.1585 27.3405 31.1587 27.3401 31.1588C27.3399 31.1589 27.3397 31.1589 27.3396 31.1589C27.3394 31.1589 27.3393 31.159 27.5462 31.9756ZM44.5225 27.7953C44.9213 28.4963 45.2531 29.2162 45.5507 30.0048L47.1252 29.4084C46.8055 28.5646 46.4187 27.7264 45.9862 26.9629L44.5225 27.7953ZM45.5507 30.0048C47.5863 35.3878 47.3519 42.5417 46.5607 48.4656L48.2292 48.6888C49.0274 42.7133 49.3168 35.2042 47.1252 29.4084L45.5507 30.0048ZM46.5607 48.4656C46.1648 51.433 45.637 54.0397 45.2042 55.9253C44.9888 56.8643 44.7995 57.612 44.6624 58.1318C44.5944 58.3899 44.5403 58.5871 44.5026 58.7225C44.484 58.7893 44.47 58.839 44.4602 58.8732C44.4554 58.8898 44.452 58.9019 44.4495 58.9103C44.4484 58.9144 44.4476 58.9171 44.447 58.9191C44.4467 58.92 44.4466 58.9205 44.4465 58.921C44.4464 58.9212 44.4464 58.9213 44.4464 58.9214C44.4463 58.9214 44.4464 58.9214 44.4464 58.9214C44.4464 58.9213 44.4464 58.9213 45.2543 59.1576C46.0622 59.394 46.0622 59.3939 46.0622 59.3938C46.0622 59.3937 46.0623 59.3935 46.0623 59.3934C46.0624 59.3933 46.0625 59.3929 46.0627 59.3925C46.0628 59.3918 46.0632 59.3907 46.0635 59.3894C46.0643 59.387 46.0654 59.383 46.0668 59.3781C46.0695 59.3689 46.0736 59.3544 46.0789 59.336C46.0892 59.3001 46.1047 59.2453 46.1243 59.1749C46.163 59.0359 46.22 58.8276 46.2901 58.5619C46.4293 58.0338 46.6252 57.2597 46.845 56.3025C47.2825 54.3955 47.825 51.712 48.2292 48.6888L46.5607 48.4656ZM38.5099 51.2949C38.5099 55.1707 35.3645 58.3151 31.4813 58.3151V60C36.2913 60 40.1933 56.104 40.1933 51.2949H38.5099ZM24.4528 51.2949C24.4528 48.6982 25.8639 46.4291 27.9671 45.2136L27.1253 43.7545C24.5236 45.2581 22.7693 48.0709 22.7693 51.2949H24.4528ZM27.9671 45.2136C29.0319 44.5908 30.1641 44.2665 31.4813 44.2746V42.5898C29.9315 42.5978 28.3756 43.0393 27.1253 43.7545L27.9671 45.2136ZM28.3879 44.4841V31.9756H26.7045V44.4841H28.3879ZM28.3879 44.4841V27.3791H26.7045V44.4841H28.3879ZM28.3879 59.1576V58.1057H26.7045V59.1576H28.3879ZM31.4813 58.3151C30.1641 58.3232 29.0319 57.9989 27.9671 57.3762L27.1253 58.8353C28.3756 59.5505 29.9315 59.9919 31.4813 60V58.3151ZM27.9671 57.3762C25.8639 56.1607 24.4528 53.8915 24.4528 51.2949H22.7693C22.7693 54.5188 24.5236 57.3317 27.1253 58.8353L27.9671 57.3762ZM31.4813 44.2746C34.4257 44.2746 36.9481 46.083 37.9942 48.6501L39.553 48.0138C38.2569 44.8332 35.1318 42.5898 31.4813 42.5898V44.2746ZM37.9942 48.6501C38.3409 49.4912 38.5142 50.3319 38.5099 51.2949H40.1933C40.189 50.1615 39.9516 49.0015 39.553 48.0138L37.9942 48.6501ZM47.3313 47.7371C44.6326 47.9438 41.6821 47.7947 38.8626 47.4942L38.6846 49.1697C41.551 49.4744 44.6542 49.6285 47.4587 49.4172L47.3313 47.7371Z" fill="#252525"/>
</g>
<g id="Rectangle 3_2">
<path id="Vector_22" d="M37.5326 33.0812C37.4956 32.7097 37.7666 32.3785 38.1379 32.3416L44.5495 31.7045C44.9207 31.6676 45.2517 31.9389 45.2887 32.3105C45.3256 32.6821 45.0547 33.0132 44.6834 33.0501L38.2718 33.6872C37.9006 33.7241 37.5696 33.4528 37.5326 33.0812Z" fill="#252525"/>
</g>
<g id="Rectangle 3.1_2">
<path id="Vector_23" d="M41.5872 34.6363C41.5502 34.2648 41.8212 33.9337 42.1925 33.8968L44.468 33.6706C44.8392 33.6338 45.1702 33.9051 45.2072 34.2766C45.2442 34.6482 44.9732 34.9793 44.6019 35.0162L42.3264 35.2423C41.9552 35.2792 41.6242 35.0079 41.5872 34.6363Z" fill="#252525"/>
</g>
</g>
</g>
</g>
</svg>
