<?xml version="1.0" encoding="utf-8"?>
<!-- Generator: Adobe Illustrator 22.0.0, SVG Export Plug-In . SVG Version: 6.00 Build 0)  -->
<svg version="1.1" id="Layer_1" xmlns="http://www.w3.org/2000/svg" xmlns:xlink="http://www.w3.org/1999/xlink" x="0px" y="0px"
	 viewBox="0 0 1366 458" style="enable-background:new 0 0 1366 458;" xml:space="preserve">
<style type="text/css">
	.st0{display:none;fill:#E9E9E9;}
	.st1{display:none;}
	.st2{display:inline;fill:#E9E9E9;}
	.st3{fill:#E9E9E9;}
</style>
<path class="st0" d="M1366-476c-204.1,30.1-221.8,215.4-432,299c-179.2,71.3-363.4,14.8-477-20C165.6-286.3,94.6-459.6-55-422
	c-113.7,28.6-221.7,166.2-199,266C-238.2-86.4-152-5.1,879,106c663.3,71.5,795.9,56,859-38c85.4-127.2,32.5-382.4-124-490
	C1507.6-495.1,1384.4-478.7,1366-476z"/>
<path class="st0" d="M1363.1-472.7c-8.7-5.1-34.2,13-41.7,16.9c-69.9,36.6-133.3,83.1-196.1,130.6c-75.8,57.3-152,116-238.9,155.6
	C746.5-105.8,586.7-96,436.7-124.1c-52.5-9.9-104.2-24.3-154.4-42.5C192.2-199.3,98-253,0.4-256.8c-3.9,28.1-0.4,59.4-0.4,87.8
	c0,38.5,0,77,0,115.5c0,6.3,0,12.6,0,18.9c0.2,0.1,0.3,0.2,0.5,0.3C0.7-34.1,0.7-34,0.7-34s1365.3,0,1365.3,0
	c0-53.2,0-106.4,0-159.6c0-81,0-161.9,0-242.9c0-8.9,3-24,0-32.4C1365.4-470.7,1364.4-472,1363.1-472.7z"/>
<g class="st1">
	<path class="st2" d="M1366,11.8c-107.4,59.2-189.5,114.3-243.5,152.7c-132.5,94.2-165.7,137.7-266.8,174.3
		c-88.4,32-168.5,36.8-217.2,39.8c-41.4,2.5-118.3,1-216.3-12.8c-55.7-7.8-124.4-35.4-194.2-63.4C147.1,270,64.9,237,0,233.6v222.8
		c0.2,0.1,0.3,0.2,0.5,0.3c0.1,0.1,0.2,0.2,0.2,0.2H1366V11.8z"/>
</g>
<path class="st0" d="M1366,16c-204.1,30.1-221.8,215.4-432,299c-179.2,71.3-363.4,14.8-477-20C165.6,205.7,94.6,32.4-55,70
	c-113.7,28.6-221.7,166.2-199,266c15.8,69.6,102,150.9,1133,262c663.3,71.5,795.9,56,859-38c85.4-127.2,32.5-382.4-124-490
	C1507.6-3.1,1384.4,13.3,1366,16z"/>
<path class="st3" d="M1373.5,19.1c-3.5-2.3-8.2-0.6-12.1,1.1c-121.1,55.2-222.8,141.7-331.7,216c-117.5,80.2-243,137.6-387.9,144.9
	c-43,2.2-86.1,0.5-128.9-4.1c-98.2-10.7-194-37.1-287.2-69.3c-73-25.3-144.9-54.2-219.7-73.7c-39.3-10.3-21.9,66.9-21.9,89.2
	c0,38.5,0,77,0,115.5c0,6.3,0,12.6,0,18.9c0.2,0.1,0.3,0.2,0.5,0.3c0.1,0.1,0.2,0.2,0.2,0.2s1391.6,0,1391.6,0
	c0-53.2,0-106.4,0-159.6c0-89.5,2.8-179.5,0.9-269c-0.1-3.7-0.5-8-3.6-10.1C1373.6,19.2,1373.6,19.2,1373.5,19.1z"/>
</svg>
