<svg width="54" height="60" viewBox="0 0 54 60" fill="none" xmlns="http://www.w3.org/2000/svg">
<path d="M39.7544 54.2662C39.4004 53.7239 38.6731 53.5705 38.1298 53.9238C34.3747 56.3654 30.0096 57.656 25.507 57.656C12.7371 57.656 2.34799 47.2857 2.34799 34.5389C2.34799 29.9101 3.71323 25.4444 6.29637 21.6238C6.65913 21.0874 6.51743 20.359 5.97997 19.9969C5.44264 19.6348 4.71276 19.7763 4.35 20.3127C1.50436 24.5219 -8.24031e-08 29.4414 -8.24031e-08 34.539C-8.24031e-08 41.3399 2.65323 47.7336 7.47083 52.5426C12.2884 57.3517 18.6939 60 25.507 60C30.4659 60 35.2738 58.578 39.4114 55.8879C39.9549 55.5347 40.1085 54.8086 39.7544 54.2662Z" fill="#252525"/>
<path d="M43.6984 50.7127C43.2354 50.2595 42.4921 50.2669 42.038 50.729L41.9991 50.7685C41.5424 51.2278 41.5453 51.9699 42.0055 52.4259C42.2346 52.6526 42.5335 52.7658 42.8325 52.7658C43.1343 52.7658 43.4364 52.6503 43.6659 52.4193L43.7145 52.3701C44.1686 51.9079 44.1614 51.166 43.6984 50.7127Z" fill="#252525"/>
<path d="M48.4538 19.2057C48.683 19.4346 48.9835 19.5489 49.2839 19.5489C49.5843 19.5489 49.8847 19.4345 50.114 19.2057L52.0697 17.2536C53.4631 15.8625 53.4631 13.599 52.0697 12.2079L47.8785 8.02428C47.2033 7.35045 46.3057 6.97932 45.3511 6.97932C44.3963 6.97932 43.4988 7.35045 42.8238 8.02428L40.8681 9.97627C40.648 10.196 40.5242 10.4941 40.5242 10.8049C40.5242 11.1157 40.648 11.4138 40.8681 11.6335L41.4233 12.1877L40.0166 13.5918C37.0336 11.5237 33.6603 10.129 30.086 9.48596V7.50034H32.6689C33.3172 7.50034 33.8429 6.97569 33.8429 6.32846V1.17187C33.8429 0.524647 33.3172 0 32.6689 0H18.3456C17.6973 0 17.1716 0.524647 17.1716 1.17187V6.32835C17.1716 6.97557 17.6973 7.50022 18.3456 7.50022H20.9285V9.4883C17.5683 10.0965 14.3618 11.3738 11.4826 13.269C10.9412 13.6254 10.7918 14.3522 11.1487 14.8926C11.5058 15.433 12.234 15.5822 12.7753 15.2258C16.5557 12.7373 20.9585 11.422 25.5073 11.422C38.2772 11.422 48.6664 21.7923 48.6664 34.5392C48.6664 38.8619 47.464 43.0771 45.1891 46.7287C44.8468 47.2783 45.0155 48.0008 45.5662 48.3428C45.7592 48.4626 45.9733 48.5196 46.185 48.5196C46.5774 48.5196 46.9607 48.3235 47.1831 47.9664C49.6897 43.9429 51.0145 39.2998 51.0145 34.5392C51.0145 29.2877 49.4311 24.2798 46.4921 20.056L47.8988 18.6519L48.4538 19.2057ZM27.7378 9.17541C27.0001 9.11201 26.2563 9.07815 25.5071 9.07815C24.7594 9.07803 24.0153 9.11108 23.2764 9.17518V7.50034H27.7377V9.17541H27.7378ZM22.1025 5.15647H19.5196V2.34386H31.4948V5.15647H28.9119H22.1025ZM45.0516 18.1787C44.5749 17.6132 44.073 17.0642 43.5432 16.5354C43.0135 16.0066 42.4635 15.5056 41.8969 15.0296L43.0834 13.8452L46.2381 16.9941L45.0516 18.1787ZM43.9138 11.3593C43.9136 11.3591 43.9133 11.359 43.9131 11.3587L43.3586 10.8053L44.4841 9.6819C44.7158 9.45068 45.0236 9.32342 45.3511 9.32342C45.6786 9.32342 45.9865 9.45068 46.2181 9.68201L50.4093 13.8655C50.8873 14.3427 50.8873 15.1193 50.4093 15.5966L49.2839 16.7198L48.7305 16.1674C48.7299 16.1668 48.7294 16.1662 48.7288 16.1656L43.9138 11.3593Z" fill="#252525"/>
<path d="M25.5073 17.9287C24.859 17.9287 24.3333 18.4534 24.3333 19.1006V21.6788C24.3333 22.326 24.8589 22.8507 25.5073 22.8507C26.1556 22.8507 26.6813 22.326 26.6813 21.6788V19.1006C26.6813 18.4534 26.1556 17.9287 25.5073 17.9287Z" fill="#252525"/>
<path d="M37.2734 22.7939C37.055 22.5759 36.7522 22.4505 36.4433 22.4505C36.1346 22.4505 35.8317 22.5759 35.6134 22.7939C35.3951 23.0118 35.2693 23.3142 35.2693 23.6224C35.2693 23.9317 35.395 24.2329 35.6134 24.4509C35.8317 24.6689 36.1346 24.7942 36.4433 24.7942C36.7522 24.7942 37.055 24.6689 37.2734 24.4509C37.4917 24.2329 37.6173 23.9306 37.6173 23.6224C37.6173 23.3142 37.4918 23.0118 37.2734 22.7939Z" fill="#252525"/>
<path d="M40.9734 33.3671H38.3905C37.7422 33.3671 37.2165 33.8918 37.2165 34.539C37.2165 35.1862 37.7422 35.7109 38.3905 35.7109H40.9734C41.6217 35.7109 42.1474 35.1862 42.1474 34.539C42.1474 33.8918 41.6217 33.3671 40.9734 33.3671Z" fill="#252525"/>
<path d="M37.2734 44.6267C37.055 44.4087 36.7522 44.2833 36.4433 44.2833C36.1346 44.2833 35.8317 44.4087 35.6134 44.6267C35.3951 44.8447 35.2693 45.147 35.2693 45.4552C35.2693 45.7646 35.395 46.0669 35.6134 46.2837C35.8317 46.5029 36.1346 46.6271 36.4433 46.6271C36.7522 46.6271 37.055 46.5029 37.2734 46.2837C37.4917 46.0657 37.6173 45.7646 37.6173 45.4552C37.6173 45.147 37.4918 44.8458 37.2734 44.6267Z" fill="#252525"/>
<path d="M25.5073 46.2272C24.859 46.2272 24.3333 46.7519 24.3333 47.3991V49.9773C24.3333 50.6246 24.859 51.1492 25.5073 51.1492C26.1556 51.1492 26.6813 50.6246 26.6813 49.9773V47.3991C26.6813 46.752 26.1556 46.2272 25.5073 46.2272Z" fill="#252525"/>
<path d="M15.4009 44.6267C15.1824 44.4087 14.8797 44.2833 14.5709 44.2833C14.2621 44.2833 13.9593 44.4087 13.741 44.6267C13.5226 44.8447 13.3969 45.147 13.3969 45.4552C13.3969 45.7646 13.5225 46.0657 13.741 46.2837C13.9593 46.5029 14.2621 46.6271 14.5709 46.6271C14.8797 46.6271 15.1826 46.5029 15.4009 46.2837C15.6193 46.0657 15.7449 45.7646 15.7449 45.4552C15.745 45.147 15.6194 44.8447 15.4009 44.6267Z" fill="#252525"/>
<path d="M12.6237 33.3671H10.0408C9.39254 33.3671 8.86682 33.8918 8.86682 34.539C8.86682 35.1862 9.39254 35.7109 10.0408 35.7109H12.6237C13.272 35.7109 13.7977 35.1862 13.7977 34.539C13.7978 33.8918 13.2721 33.3671 12.6237 33.3671Z" fill="#252525"/>
<path d="M15.4009 22.7939C15.1826 22.5759 14.8797 22.4505 14.5709 22.4505C14.2621 22.4505 13.9593 22.5759 13.741 22.7939C13.5226 23.0118 13.3969 23.3142 13.3969 23.6224C13.3969 23.9306 13.5225 24.2329 13.741 24.4509C13.9593 24.6689 14.2621 24.7942 14.5709 24.7942C14.8797 24.7942 15.1826 24.6689 15.4009 24.4509C15.6193 24.2329 15.7449 23.9306 15.7449 23.6224C15.7449 23.3142 15.6194 23.0118 15.4009 22.7939Z" fill="#252525"/>
<path d="M34.6736 25.3891C34.2913 25.0077 33.6977 24.936 33.2354 25.2153L23.5443 31.0716C23.4395 31.1311 23.2928 31.2172 23.1934 31.2952C22.179 32.0184 21.5156 33.2025 21.5156 34.5389C21.5156 36.7361 23.3063 38.5235 25.5073 38.5235C26.8409 38.5235 28.0232 37.8665 28.7484 36.8603C28.8352 36.7531 28.9161 36.6124 28.9819 36.4965L34.8477 26.8247C35.1276 26.3633 35.0556 25.7707 34.6736 25.3891ZM26.9591 35.3059L26.8622 35.4657C26.5656 35.8964 26.0691 36.1797 25.5071 36.1797C24.6009 36.1797 23.8636 35.4438 23.8636 34.5391C23.8636 33.978 24.1475 33.4822 24.5792 33.1862L24.7384 33.09C24.9679 32.9681 25.2294 32.8985 25.507 32.8985C26.4133 32.8985 27.1507 33.6344 27.1507 34.5392C27.1507 34.816 27.081 35.0769 26.9591 35.3059ZM28.7937 32.2811C28.5173 31.8814 28.1698 31.5345 27.7692 31.2586L30.3655 29.6897L28.7937 32.2811Z" fill="#252525"/>
<path d="M25.5073 14.2382C14.2929 14.2382 5.16934 23.345 5.16934 34.5391C5.16934 45.7332 14.2928 54.8401 25.5073 54.8401C36.7217 54.8401 45.8451 45.7332 45.8451 34.5391C45.8451 23.345 36.7216 14.2382 25.5073 14.2382ZM25.5073 52.4963C15.5877 52.4963 7.51745 44.4407 7.51745 34.5391C7.51745 24.6375 15.5876 16.5819 25.5073 16.5819C35.4268 16.5819 43.497 24.6375 43.497 34.5391C43.497 44.4407 35.4268 52.4963 25.5073 52.4963Z" fill="#252525"/>
<path d="M9.20311 16.4642C8.98462 16.2462 8.68185 16.1208 8.37309 16.1208C8.06433 16.1208 7.76144 16.2462 7.54319 16.4642C7.32483 16.6822 7.1991 16.9845 7.1991 17.2927C7.1991 17.6021 7.32471 17.9033 7.54319 18.1212C7.76144 18.3392 8.06433 18.4646 8.37309 18.4646C8.68185 18.4646 8.98474 18.3392 9.20311 18.1212C9.42147 17.9033 9.54709 17.6009 9.54709 17.2927C9.54709 16.9846 9.42159 16.6823 9.20311 16.4642Z" fill="#252525"/>
</svg>
